<svg xmlns="http://www.w3.org/2000/svg" viewBox="0 0 2500 600">
  <g fill="#003c71">
    <path d="M1124 443.6c2.6.4 5.2.5 7.8.9 1.8.3 4.6.5 5.6 2.4 1.3 2.5-1.2 4.3-3.4 4.8-3 .7-6.1.1-9.1-.1-4.5-.3-9-.5-13.6-.7-5.2-.2-10.4-.3-15.6-.3-5.7 0-11.5 0-17.3.1-4.4.1-8.8.2-13.3.5-2.6.1-5.2.3-7.8.5-2.5.2-5.3.6-7.8.2-2.1-.3-4.5-1.9-3.8-4.4.6-2.3 3.7-2.7 5.7-3 5-.6 10.1-.8 14.8-2.9 4-1.7 7.2-4.7 8.6-8.9 1.6-4.8 1.4-9.9 1.4-14.8l.2-126.7c0-5.9.1-10.7-.2-16-.1-2-.5-4-2.1-5.4-2.1-1.8-5-2-7.6-2.2-7-.4-14.2-.2-21.2.1-4.6.2-9.1.6-13.6 1.5-5.7 1.1-11.4 2.9-15.5 7.2-5 5.3-5.9 12.5-7 19.4-.3 2.2-.9 7.8-4.4 6.8-1.8-.5-2-2.4-2.1-4-.2-1.9-.1-3.8-.1-5.7.1-8 0-16 0-24 0-2.6-.6-6.3 1.2-8.5 1.5-1.8 4.1-2 6.2-2.1 3.1-.2 6.2.2 9.2.4 10.5.5 21 .9 31.6 1.2l17.5.3c7.2.1 14.4.1 21.6.1 7.4 0 14.8 0 22.2-.1 17.4-.2 34.9-.6 52.3-1.5 3.1-.2 6.3-.5 9.4-.3 1.8.1 3.8.5 5 2 .7.9 1.1 2.1 1.2 3.2.3 2.4.1 5 0 7.4v23.2c0 2.2.4 4.7-.3 6.8-.2.5-.4 1-.8 1.3-1.4 1.3-3.3 0-4-1.4-1.4-2.7-1.4-6.3-1.9-9.3-1.1-5.8-2.9-11.7-7.3-15.9-3.9-3.7-9.2-5.5-14.4-6.5-9.9-1.8-20-1.8-30-1.7-2.7 0-5.3 0-8 .4-1.8.3-3.7.8-4.8 2.2-1.2 1.5-1.6 3.7-1.7 5.5-.3 4.9-.2 9.8-.2 14.7 0 0 0 131.6.4 136.3.4 3.8 1.2 7.8 3.7 10.7 3.5 3.9 8.6 5.5 13.3 6.3M786.1 126.8c0-26.6 10-50.5 29.4-70C836.1 36.5 862.6 26 892 26c29.9 0 58.2 12 77.6 32.6 16.9 18.1 24.8 39.9 24.9 67.7 0 27.7-11.2 54-29.7 71.4-18.8 17.7-46.9 28.6-74 28.6-28.8 0-54.8-9.7-74-27.4-21-20-30.6-42.3-30.7-72.1m55.6-69.1c-12.3 16-19.6 39-19.6 67.7 0 28.9 7.1 52.2 19.3 68.5 12.1 16.3 29.5 25.3 49 25.3 19.4 0 36.9-8.4 49.2-24.4 12.4-16 19.6-39.2 19.6-68.8 0-29.7-6.9-52.8-18.9-68.7C928.2 41.4 910.8 33 891 33c-19.6-.1-37.1 8.7-49.3 24.7M103 211.9c-1.9 1-4 1.5-6.1 1.9-2.2.4-4.5.5-6.7.9-1.8.3-4.3.5-5.4 2.1-1.1 1.7-.5 3.8 1.2 4.8 2.3 1.3 5.2.7 7.6.5 2.3-.2 4.7-.3 7-.5 6.2-.4 15.1-.7 26.5-.7s20.2.4 26.5.7c2.4.1 4.7.4 7.1.6 2.8.2 8.9 1.2 9.5-2.9.1-.8-.2-1.7-.7-2.4-.6-.8-1.6-1.4-2.6-1.7-3-.9-6.2-.9-9.3-1.4-2.1-.4-4.1-.9-6.1-1.9-3.4-1.6-6.2-4.2-7.5-8-1.3-3.7-1.6-8.2-1.6-14.6v-61.7h101.5v61.7c0 6.5-.2 10.8-1.4 14.6-1.2 3.7-4 6.4-7.4 8-1.9 1-4 1.5-6.1 1.9-3.1.5-6.3.6-9.4 1.4-1.4.4-2.7 1-3.2 2.5-.5 1.7.5 3.3 2.1 4 3 1.2 6.5.4 9.6.2 10.5-.8 21.1-1 31.7-1 10.5.1 21.1.2 31.6 1.1 2.9.2 8.6 1.3 10.4-2 .6-1.1.4-2.6-.5-3.5-.6-.7-1.5-1-2.4-1.3-5.2-1.5-10.7-.9-15.6-3.4-3.4-1.5-6.1-4.2-7.3-8-1.2-3.7-1.4-8.1-1.5-14.6V61.5c0-6.3.3-10.6 1.5-14.3 2.9-8.4 12.1-9.1 19.6-10.3 2.1-.3 6-.3 6.4-3.2.1-.9-.4-1.8-1.1-2.4-.7-.6-1.7-.8-2.6-.9-2.7-.4-5.4.1-8.1.2-2.7.1-5.4.2-8.1.4-7.6.3-15.3.5-22.9.5-11.3 0-20.1-.3-26.3-.6-2.8-.1-5.6-.3-8.4-.5-2.4-.1-6.3-.7-7.6 2-.5 1-.3 2.2.5 2.9.6.5 1.4.7 2.1.9 5.2 1.4 10.7 1.1 15.7 3.2 3.3 1.4 6 4.1 7.3 7.7 1.3 3.6 1.5 7.9 1.5 14.3v56.3H142.4V61.5c0-7 .5-11.8 2.3-15.6 1.7-3.9 5.2-6.2 9-7.2 4-1 8.1-1.5 12.1-2.2 1.1-.2 2.4-.5 3.1-1.4 1.6-1.9-.3-4.1-2.2-4.7-1.7-.4-3.4-.1-5.1 0-2.7.2-5.4.3-8.1.4-6.3.3-15.1.6-26.3.6-10.3 0-20.7-.3-31-.8-3-.2-6.6-.8-9.4.1-2.7.9-3.1 4-.5 5.3 1.5.8 3.5.9 5.2 1.1 1.9.2 3.8.4 5.8.8 2.1.4 4 .9 5.9 1.7 3.3 1.4 6 4.1 7.3 7.7 1.2 3.6 1.5 7.9 1.5 14.3v127.9c0 6.5-.2 10.8-1.5 14.6-1.3 3.5-4.1 6.2-7.5 7.8m346.4-2.2c-7.7 2.6-17.4 3.5-30 3.6-10.3 0-18-.5-24-2.1-6-1.5-10.5-4.5-13.1-9-1.8-3-2.7-6.5-3.3-10.5-.8-5.3-.8-11.6-.8-19.4l.2-46.6c8.8 0 17.9-.1 26.4 2.4 1 .3 1.9.6 2.9 1 6.3 2.5 10.8 6.9 13.5 12.8 1.2 2.5 2.1 5.2 2.8 7.9.5 2.2.8 4.6 1.9 6.6 1.1 2.1 3.7 2.5 5 .4 1.4-2.3.9-5.2.7-7.8l-.6-8.1c-.6-8.1-.9-16.1-.9-24.2 0-8.4.6-16.7 1.2-25 .2-2.6.7-5.6-.1-8-.8-2.2-3.3-3.7-5.3-2-1.9 1.6-2.1 4.6-2.5 6.8-.3 1.9-.7 4.3-1.4 6.9-.7 2.4-1.6 5-3.1 7.5-3.2 5.1-7.6 8.8-13.4 11.1-5.9 2.3-13.1 3.3-22.7 4l-4.6.3c0-2.3-.4-67.5.3-71.9.2-1.3.5-2.5 1.1-3.7 1.6-3 4.8-3.5 7.9-3.8 3.1-.3 6.8-.3 11.5-.3h2.3c13.8 0 28.4.4 36.8 2.4 8.4 1.9 14.8 5.8 18.9 12.4 1.4 2.3 2.3 4.6 2.9 6.9.6 2.3.9 4.4 1.2 6.1.3 1.6.5 3.2 1.1 4.7.7 1.6 2.4 2.6 4.2 2.1 1.5-.4 2.4-1.8 2.6-3.3.3-2.4-.2-4.8-.5-7.2-.4-3.1-.6-6.2-.6-9.3 0-8.1.9-13.4.9-15.3 0-1.9-.4-3.2-1-4.1-1.2-1.8-3.5-2.4-5.5-2.7-5.7-.8-11.5-.5-17.3-.5-26.6 0-53.8.8-74.3.8-26.7 0-42.2-1.1-44.6-1.1-1.7 0-4.1.2-5.2 1.8-1 1.6.2 3.4 1.7 4 3.3 1.4 7.3 1.2 10.7 1.8 2.1.4 4.1.8 5.9 1.7 3.3 1.4 6 4.1 7.3 7.7 1.3 3.6 1.5 7.9 1.5 14.3v127.9c0 6.5-.2 10.8-1.4 14.6-1.2 3.7-4 6.4-7.4 8-3.5 1.6-7.3 2.1-11.1 2.6-2.6.3-8.3.5-7.7 4.6.2 1.5 1.7 2.6 3.2 2.9 2 .5 4.2.1 6.2 0 8.2-.5 16.4-1 24.6-1.1 3-.1 5.9-.1 8.9-.1 65.1 0 100.2 1.4 105.4 1.4 1.8 0 3.7 0 5.5-.3 2.4-.4 3.9-1.7 4.2-4.1.3-2.4.2-4.8.2-7.2.1-2.7.2-5.3.4-8 .3-5.3.7-10.6.7-16 0-2.9.3-6.1-.9-8.8-.5-1.2-1.5-1.9-2.9-1.9s-2.5 1.1-3.1 2.3c-.8 1.4-1 3.2-1.3 4.8-.4 1.8-.8 3.5-1.4 5.2-.7 2.3-1.8 4.9-3.4 7.6-3.9 6.3-9.6 10.9-17.3 13.5m319.5 5.9c.4.2.7.4 1 .7 1.6 1.6 1.1 4-.8 5.1-2.4 1.3-5.8.7-8.4.5-2.4-.2-4.9-.3-7.3-.4-11.9-.6-23.8-.8-35.7-.7-17.7.2-40 .8-57.7.8-4.7 0-9.2.3-13.4.3-2.9 0-5.2-.1-7.1-.7-1.9-.6-3.5-1.6-5.5-4l-61.4-77c-1.7-2.2-3.5-3.9-5.8-5-3.8-1.7-8.3-1.3-12.4-1.3l.1 55.4c0 6.5.2 10.8 1.4 14.6.6 1.9 1.7 3.7 3.1 5.1 3.8 3.7 9.4 4.6 14.4 5.3 2 .3 4.2.3 6.1 1.1 1.6.7 2.9 2.4 2.3 4.2-.4 1.4-1.8 2-3.2 2.3-2.1.5-4.4.1-6.6 0-2.2-.1-4.4-.3-6.5-.4-6.2-.4-15-.7-26.5-.7-11.4 0-20.2.4-26.5.7-2.7.2-5.4.4-8.2.5-2 .1-4 .4-5.9-.3-.7-.3-1.3-.7-1.8-1.3-1.8-2.5.6-4.7 2.9-5.4 5.1-1.3 10.4-.8 15.3-3.2 3.4-1.6 6.2-4.3 7.4-8 1.2-3.7 1.4-8.1 1.4-14.6V61.4c0-6.3-.3-10.6-1.5-14.3-1.2-3.7-4-6.3-7.3-7.7-1.8-.8-3.8-1.3-5.9-1.7-2.3-.4-4.5-.5-6.8-.8-1.8-.2-4-.5-5.3-1.9-1.1-1.1-.9-2.9.3-3.8 1.2-1 3-1.1 4.5-1.1 1.1 0 9.1.6 23 .6 20.3 0 38.6-1.4 54.3-1.4 23.9 0 41.8 3.8 53.4 11.6 11.5 7.9 17.5 19.5 17.5 37.5 0 13.4-4 24-11.4 32.1-3.9 4.3-8.7 7.7-13.8 10.3-8.5 4.4-17.7 6.3-27 8.3l60.8 71.2c4.3 5 9.7 9.6 15.8 12.2 4.2 1.8 8.9 2.1 13.4 1.8 4.1-.2 8.4-.9 12.2-2.6 3.7-1.6 6.7-4.2 8.1-8 1.5-3.8 1.8-8.2 1.8-14.5V61.4c0-6.3-.3-10.6-1.7-14.3-1.3-3.7-4.1-6.3-7.4-7.7-1.9-.8-3.9-1.3-6.3-1.7-3.3-.5-6.5-.5-9.8-.8-1.9-.2-5.4-.7-5.3-3.4.1-1.7 2-2.4 3.4-2.8 2.6-.7 5.5-.5 8.2-.4 2.8.1 5.6.3 8.4.4 8.5.4 17 .6 25.5.6 11.3 0 20.1-.3 26.5-.6 6.3-.3 10.2-.6 11-.6 1.9 0 3.8 0 5.6.8 1.2.5 2.5 1.4 2.4 2.8-.2 3.2-5.8 3-8 3.3-3.7.5-7.4.7-11 1.6-3.8.9-7.3 3.3-9 7.2-1.8 3.8-2.3 8.6-2.3 15.6v127.9c0 6.5.4 11 1.9 14.7 1.8 4.5 5.6 6.9 9.9 8.4 3.3 1.2 6.6 1.6 10.1 2 2.8.3 5.1.3 7.1 1.2m-207.7-89.3c19.5 0 33.3-2.7 42.7-9.8 9.5-7.2 13.3-18.7 13.2-33.7 0-15.5-3.6-27.4-12-35.3-8.4-7.9-20.8-11.3-37.2-11.3-5.5.1-8.3.5-10.6 2.1-.8.6-1.7 1.8-2.1 3.1-.5 1.4-.7 3-.7 5.3v79.6h6.7M405.6 260.6c-.9.4-1.5 1.3-1.6 2.2-.1.8.2 1.8.7 2.4 1.2 1.4 3.7 1.8 5.5 2.1 2.2.4 4.5.6 6.7 1.1 3.3.8 6.4 2.6 8.5 5.7 2.2 3.1 3.7 7.1 5.6 13l49.2 153.7c1.1 3.2 2.1 6.4 3.5 9.5.7 1.6 1.6 3.1 2.9 4.2 3.7 3 7.7.7 10-2.7 1.7-2.6 3.3-6.7 4.8-11.9l41-135.3 40.4 137.3c.8 2.7 1.6 5.4 2.7 8 .9 2.1 2.2 4.5 4.4 5.5s4.9.1 6.6-1.6c2.2-2.1 3.3-5 4.4-7.8 1.8-4.4 3.1-9 4.5-13.5.9-3 1.9-6.1 2.8-9.1 1.3-4.1 2.5-8.1 3.8-12.2 1.5-4.8 3-9.6 4.5-14.5 1.6-5.3 3.3-10.6 5-15.9 1.7-5.5 3.5-11.1 5.2-16.6 1.7-5.5 3.4-11 5.1-16.4 1.6-5.2 3.2-10.3 4.8-15.5 1.4-4.6 2.8-9.2 4.3-13.8 1.2-3.7 2.3-7.5 3.5-11.2.8-2.6 1.6-5.2 2.4-7.9.4-1.2.8-2.5 1.1-3.7 0-.1 0-.1.1-.2 2.4-7.7 4.3-13.3 6.6-17.6 2.3-4.3 5.4-7.4 9.6-9 2.1-.8 4.3-1.3 6.5-1.9 1.7-.5 3.6-1 4.8-2.3 1.1-1.2 1.3-3.3-.3-4.2-1.1-.7-2.6-.7-3.8-.7-2.1-.1-4.1.1-6.2.3-3.7.3-7.5.5-11.2.5-6.7 0-13.4-.1-20.1-.4-4.2-.2-8.5-.5-12.7-.7-2.5-.1-7.5.1-7.6 3.6.1 1.8 1.4 3 3.1 3.4 1.5.4 3.1.4 4.6.6 4.7.7 9.8 1.8 13.3 5.3 2.4 2.5 3.4 5.9 3.4 9.2 0 10.5-2.8 26.5-9.3 47.3l-25.6 83.3-43-140.4c-.5-1.5-.9-3-1.4-4.5-.7-2.3-1.4-4.9-3.3-6.5-1.2-1.1-3-1.6-4.6-1.3-1.9.3-3.1 1.5-4.1 3-1.1 1.8-2.2 5-3.3 8.7l-43 144.4-3.3-10.8-.9-3c-10.3-33.5-18.4-60.2-24.2-80.1-3.4-11.6-5.9-20.8-7.6-27.7-1.7-6.9-2.6-11.3-2.6-14.3 0-1.3.1-2.7.6-4.1.5-1.4 1.4-2.8 2.6-3.8 1.9-1.5 4.2-2.4 6.5-3 2.6-.7 5.3-1.2 7.9-1.5 1.7-.2 3.5-.3 5.1-.7 1.4-.3 3-1 3.1-2.6.1-1.4-1-2.7-2.3-3.2-1.3-.5-3.6-.8-6.2-.8-10.2 0-22.2 1.4-35.2 1.4-19.3 0-31-1.1-34.3-1.1-1.2-.2-2.8-.3-4 .3M683.5 443c2.1.9 4.4 1.5 6.6 2 2.1.5 5.5.8 6.1 3.4.1.5.1 1 0 1.5-.3 1.1-1.5 1.7-2.5 2-2.1.7-4.4.4-6.5.2-1.8 0-3.7-.4-5.5-.5-1.8-.2-3.7-.3-5.5-.5-3.6-.3-7.2-.5-10.8-.5-4 0-8.1.1-12.1.3-3.9.2-7.8.6-11.7.8-1.8.1-3.7.1-5.4-.2-1.1-.2-2.2-.8-2.9-1.6-.7-.9-.9-2.2-.4-3.2.6-1.1 1.9-1.5 3.2-1.9 3.6-1 7.4-1.5 11-2.9 5.8-2.3 10.1-6.9 13.3-12.1 3.5-5.7 6.1-11.8 8.7-17.9l63.4-151.2c.7-1.7 1.5-3.2 2.3-4.1.9-1 1.9-1.6 3.3-1.6s2.3.6 3.3 1.7c.9 1 1.8 2.7 2.6 4.7l62.8 158.2c2.5 6.1 4.8 10.9 7.4 14.6 2.6 3.7 5.7 6.4 9.3 7.9 2 .8 3.9 1.4 5.8 1.7 2.6.6 5.4.7 7.9 1.6 1.5.6 3.1 2 2.6 3.7-.5 1.7-2.4 2.4-4 2.6-3.6.5-7.4 0-10.9-.2-1.1 0-2.2-.1-3.3-.2-8-.4-16-.8-23.9-.7-8 .1-15.9.8-23.8 1.3-2.4.2-4.8.2-7.2.3-2.4.1-4.9.2-7.3-.3-1.8-.3-4.4-1.5-3.9-3.8.7-3 6.2-3.4 8.6-3.8.3 0 .5-.1.8-.1 5-.7 12.4-1.8 13.9-7.6.9-3.4 0-6.9-.7-10.1-.8-3.4-1.8-6.7-3.1-9.9l-12.9-34.3h-71.2l-12.4 30.9c-.8 2.1-1.5 4.2-2.1 6.3-.8 2.8-1.3 5.7-1.5 8.7-.2 3.1.1 6.5 1.9 9.1 1.4 2.8 3.9 4.5 6.7 5.7m10.5-69.9h64.4l-31.1-80.2-3.3 7.9-30 72.3zM311.1 295l.6-.2c1.2-.4 4.1-1.1 7.2-1 1.7 0 3.4.2 4.9.8 4.6 1.7 8.6 2.6 11.6 2.6 1.2-.1 2.3 0 3.6-1 1.1-.9 1.2-2.4.4-3.5-.8-1-2.1-1.1-3.2-.4v-.1l-.8.1c-1.9 0-5.7-.8-9.8-2.3-2.2-.8-4.5-1.1-6.6-1.1-5 0-9.2 1.5-9.3 1.5-1.3.4-2 1.8-1.6 3.1.3 1.2 1.7 1.9 3 1.5m-.4 27 .7-.2c1.4-.5 4.9-1.5 8.6-1.5 1.3 0 2.7.1 4 .4 4.5 1.1 8.4 1.8 11.2 1.8 1.3-.1 2.4 0 3.9-1 1.1-.9 1.2-2.4.4-3.5-.8-1-2.1-1.1-3.2-.5v-.1h-1c-2 0-5.8-.6-10.1-1.6-1.7-.4-3.4-.6-5.1-.6-6 0-10.9 2-11.1 2-1.3.5-1.9 1.9-1.4 3.2.4 1.5 1.8 2.1 3.1 1.6m-22.2-19.3c-1.9 0-3.9.2-5.9.8-4.2 1.3-8 2-10 2l-.9-.1v.1c-1-.6-2.4-.5-3.2.5-.8 1.1-.7 2.6.4 3.5 1.4 1 2.5.9 3.7 1 2.9 0 6.8-.8 11.4-2.2 1.4-.4 2.9-.6 4.4-.6 2.2 0 4.4.4 6 .7l1.9.5.6.2c1.3.5 2.7-.2 3.2-1.5s-.2-2.7-1.5-3.2c-.1 0-4.6-1.7-10.1-1.7m-.6 13.1c-1.6 0-3.4.2-5.1.6-4.3 1-8.1 1.6-10 1.6l-1-.1h-.1v.1c-1-.6-2.4-.5-3.2.5-.9 1.1-.7 2.6.4 3.5 1.4 1 2.5 1 3.9 1 2.8 0 6.7-.7 11.2-1.8 1.3-.3 2.6-.4 4-.4 2.4 0 4.8.4 6.5.9l2 .6.7.2c1.3.5 2.7-.1 3.2-1.4.5-1.3-.1-2.7-1.4-3.2-.1-.1-5.1-2.1-11.1-2.1m23-7.2.6-.2c1.3-.4 4.5-1.2 7.9-1.2 1.5 0 3.1.2 4.4.6 4.5 1.4 8.5 2.2 11.4 2.2 1.3-.1 2.4 0 3.7-1 1.1-.9 1.2-2.4.4-3.5-.8-1-2.1-1.1-3.2-.4v-.1l-.9.1c-1.9 0-5.7-.7-10-2-2-.6-4-.8-5.9-.8-5.5 0-10 1.7-10.2 1.8-1.3.5-1.9 1.9-1.5 3.2.6 1.1 2 1.8 3.3 1.3m-38.3-11c2.9 0 7-.9 11.5-2.6 1.5-.5 3.2-.8 4.9-.8 2 0 4 .3 5.5.6l1.7.4.6.2c1.3.4 2.7-.3 3.1-1.6.4-1.3-.3-2.7-1.5-3.1-.1 0-4.3-1.5-9.3-1.5-2.1 0-4.4.2-6.6 1.1-4.1 1.5-8 2.3-9.8 2.3l-.8-.1v.1c-1-.6-2.4-.5-3.2.4-.9 1.1-.7 2.6.4 3.5 1.2 1 2.2 1 3.5 1.1m107.7-38.9v97.1c.1 89.1-36.6 143.9-73.4 175.7-36.7 31.9-73.2 41.4-73.6 41.5l-1.2.3-1.2-.3c-.4-.1-36.8-9.6-73.5-41.5-36.6-31.9-73.2-86.6-73.2-175.7v-97.1h296.1zm-79.5 265.8c19.2-16.8 38.5-40 51.9-71.8H240.2l12.2 36.6H284c1.1 0 2 .7 2.4 1.7l-.9 2.8-25.5 18.6 8.4 28.5-.9 2.7-2.8.1-28.3-17.9v36.6c.2-.1.3-.1.4-.1 3.8-1.3 9.2-3.4 15.8-6.4 13.1-6.2 30.7-16.1 48.2-31.4m-202.6-118c2.5 13.5 5.9 25.9 10.1 37.3h36.8c-.5-.5-1.1-.8-1.4-1.4-1.2-1.9-1.3-3.9-1.3-4.9v-.1c.1-2.5 1-4.6 2.4-6.3-.9.3-1.8.6-2.9.6l-2.1-.3c-1.6-.4-2.8-1.4-3.6-2.5-.8-1.1-1.3-2.3-1.7-3.4-.1-.2-.1-.4-.1-.5-.2.2-.4.5-.6.7-1.7 1.4-3.8 2.7-6.5 2.7-1.6 0-3.2-.5-4.8-1.4-2.4-1.4-3.6-4-3.6-6.4.1-4 2.6-7.9 6.3-10.5-.6-1-1-2.1-1-3.3v-.1h-26m107 126.6c1.4-2.6 2.7-4.8 4-6.5 2.3-3.2 4.7-5.2 7.4-6.8 3.9-2.3 8.4-2.7 11.6-2.7h.1V396.1c-.3.6-.7 1.2-1 1.7l-.5.5c-.3.4-.7.8-1.1 1.1l-.2.1-.2.2-2.1.5-.2.1h-.1c0 1.7-.1 3.1-.2 4.4-.1.6-.1 1.2-.2 1.8-.3 2.1-.7 3.8-1.1 5.1v.2l-1.1 1.2h-.1l-.2.2c-.8.3-1.7.4-2.5.6l-1.2.3h-.2c-1.3.2-2.6.3-4.2.3-.3 0-.6-.1-.9-.1-2.1-.1-4.2-.3-6.3-.7 6.5 5.2 10.3 9.7 12.6 13.8 3.6 6.4 3.4 11.6 4.5 15.9.6 2.5.8 6.2.8 10.8 0 9.1-.8 20.9-2.2 27.7-.5 2.3-.8 4-1.8 5.4-2.5 3.6-3.6 7-7 11-3.6 4.2-7.1 5.2-11.4 7.5-4.9 2.6-8.3 3.9-10.6 5.9-1 .8-1.9 1.9-2.7 3.3 3.8-2.1 7.2-2.6 10.1-2.6h2.6l2.6-.1c3.7-.3 8.8-4.4 10.9-6.4l1.1-1.1 3.1-.4c1 .7 1.4 1.9 1 3-1.3 3.2-2.2 4.7-3.4 6.2-1.1 1.4-2.5 2.9-5.5 7.2-3.3 4.3-4.1 8.9-4.2 12.6m-55-84.3c-1 1-1.4 1.3-1.5 3.1 0 1.4.3 1.8.7 2.1.4.3 1.4.7 2.9.7 1.2.2 4-1.5 4.4-2.3l.1-.1c.2-.6.3-1.9.5-3.3s.2-3 1.5-4.7c.8-1.1 2.3-1.8 3.8-1.8l2.4 1.4c1.3 2.7 2.8 3.3 3.8 3.3l.9-.2c1.9-.9 2.2-1.7 2.7-3.1.4-1.4.4-3.4 1-5.5.4-1.4 1.3-3.1 3-4.1l3.1.4c1.3 1.3 2.2 2 2.9 2.4l2 .4h.3c1.5-.1 2-.5 2.7-1.3.7-.9 1.2-2.4 1.8-4.3 1.1-3.7 2.1-9 7-12.4 1.7-1.1 3.6-1.8 5.4-2.2-.3-.2-.5-.4-.8-.7-3.2-2.6-7.2-5.3-12.1-8.4-.5-.3-1.1-.7-1.6-.9-.2-.1-.4-.2-.5-.3-1.2-.6-2.4-1.1-3.5-1.5-.4-.1-.7-.3-1.1-.4-.7-.2-1.3-.3-1.9-.4-.8-.2-1.7-.4-2.5-.4h-.2c-1.1 0-2.2.2-3.2.5-.3.1-.5.2-.7.3-.7.3-1.4.5-1.9.9l-.5.5c-.4.4-.8.7-1 1.1-.3.4-.4.8-.4 1.1 0 .1-.1.3-.1.4v.3c0 .3.1.7.4 1.1l.3.3c.3.3.6.6 1 .9.3.2.5.4.8.6l.3.2.5 1.3.4.8-.1.1v.1l-1.5 1.7-.1.1c-.9.3-1.8.3-2.7.4-.9.1-1.9.4-2.8.4-1.3 0-2.6-.1-3.9-.3-.4-.1-.8-.1-1.2-.2-1.4-.2-2.5-.4-3.4-.5l-1.2-.1h-.4c-.9 0-1.4.2-1.8.4-.1 0-.2.1-.2.1-.1 0-.1.1-.2.2l-.7.9-.3 1.2 1.3 2.3c1 .8 2.5 1.5 4.3 1.8 1 .2 1.8 1 2 2.1.2 1.1-.4 2.1-1.3 2.6-2.3 1.2-5.4 2.6-7.3 3.5-2 .9-4.4 3.7-4.3 5.9v.1l.6 2.4c.5.6.9 1.2 2.9 1.3 1.3 0 2.4 1.1 2.4 2.5s-.6 2.7-1.2 3.5l-2 1.7m-12-29.8c.2.9.3 2.1.6 3.4.3 1.3.8 2.6 1.3 3.3l.9.7.9.1c1.4 0 2.9-1.1 4.1-2.9 1.2-1.7 1.9-4.1 1.8-4.2v-.1c0-.4.1-1.3.4-2.3l.1-.6c.1-.2.3-.5.4-.7.1-.2.1-.4.2-.6.1-.2.2-.3.3-.5.1-.1.2-.3.3-.4.3-.4.7-.8 1.2-1.1.1-.1.2-.2.4-.3.1-.1.2-.1.2-.1.5-.3 1.1-.6 1.7-.7.2-.1.3-.2.5-.2.8-.2 1.6-.3 2.6-.3h1.3c.3 0 .7.1 1 .2l.7.1c.7.1 1.6.2 2.4.4 1.3.2 2.6.3 3.9.3-.1-.2-.1-.5-.2-.7-.3-.7-.5-1.5-.5-2.2 0-.1-.1-.2-.1-.4v-.5c.1-.7.5-1.2.7-1.8.2-.7.3-1.4.7-2 .5-.7 1.1-1.2 1.7-1.8.4-.3.6-.8 1-1 0 0 .1-.1.2-.1s.1-.1.2-.2c.8-.5 1.7-.8 2.6-1.1l1.2-.6c1.4-.4 3-.7 4.6-.7h.1l.9.1-.2-1.2v-.4c0-.1-.1-.2-.1-.3-.2-.7-.6-1.5-1.2-2.2-.3-.3-.7-.6-1.1-.9-.5-.5-1.1-1-1.8-1.4-1.9-1.1-4.3-2-6.5-2.5l-.8-.1h-.1l-.1.1-.2 1c0 .6.1 1.4.3 2.2.1.4.2.9.3 1.3.2.7.3 1.4.6 2.1v.1l-.8 2.4-.1.2-2.7.3h-.1c-1.5-.8-3.4-1.6-5.4-2.2-.1 0-.1 0-.2-.1-2-.6-4.2-.9-6.4-.9h-.8l-1.4.5c-.2.2-.5.4-.6.5l-.3.6.8 1.4.8 1.8v.1l-.3.5-.5 1.2c-.1.1-.2.1-.2.1v.1c-.1.1-.6.4-1.2.8-.3.2-.7.3-1.2.4-.1 0-.2.1-.4.2-1.3.3-2.7.4-4 .5-3.9 0-7.8-.8-8.4-1h-1c-1.7 0-2.8.4-3.5.9l-.8 1.1c0 .3.2.9 1.4 1.8l1 2.3-1.5 2c-3.7 1.4-6.3 5.4-6.2 7.7.1 1.1.3 1.6 1.2 2.2l2.3.7c1 0 2.2-.5 3.3-1.5 1.2-1 2.3-2.4 3.3-3.6l2.5-.8 2 1.5zm-11.5-31.5c-.1 1.1 1.1 3.1 3.4 4.8 2.2 1.7 5.1 3.1 7.3 3.6 2.4.6 4.5 1.6 6.7 2.8v-.1c0-.1.1-.2.1-.3 0-.9.2-1.8.8-2.7.5-.8 1.3-1.6 2.3-2.3.1-.1.2-.2.3-.2.2-.2.5-.2.7-.3.4-.2.9-.4 1.3-.5.4-.1.8-.1 1.1-.2.4 0 .7-.2 1.1-.2.2 0 .3.1.5.1h.1c1.9 0 3.9.3 5.9.8.3.1.6 0 .9.1.9.2 1.8.5 2.6.8-.1-.4-.2-.8-.2-1.2v-.8c-.3-.1-.5-.2-.7-.3-.1 0-.2-.1-.3-.1 0 0-.1 0-.1-.1-.8-.3-1.7-.6-2.7-1.1-.4-.2-.7-.5-1.1-.7-.4-.2-.8-.5-1.1-.7-.9-.5-1.8-1.1-2.7-1.7l-.9-.6c-1.6-1.3-3.1-2.9-4.1-4.7-.2-.3-.3-.6-.4-.9-.3-.5-.3-1.1-.5-1.7-.1-.5-.4-.9-.4-1.4-.1-1 .4-2 1.1-2.9.1-.2.1-.5.2-.6l.9-.5c.1-.1.2-.3.3-.3.2-.1.4-.1.6-.2l.6-.3c.4-.1.7-.1 1-.2.4-.1.6-.1.8-.2v-.8c-.2-1.2-.7-2.1-1.3-2.7l-1-.9c-.1-.1-.2-.2-.3-.2h-.2c-.4-.2-.9-.3-1.6-.3h-.2c-.3 0-1.3.5-2.3 1.6-1 1.1-1.9 2.5-2.6 3.4l-.5.4c0 .1-.1.1-.1.2l-.4.4c-1.1.7-2.4.4-3.2-.5l.1-3.3c1.2-1.3 1.6-2.6 1.6-4l-.4-2.7c-.3-.9-.6-2-1-2.8l-.9-.9-.8-.3-.7-.1-2.6 1-2.9.6c-1-.5-1.6-1.6-1.4-2.7.2-1.1.3-2.1.3-3 0-1.5-.3-2.5-.8-3.1-.5-.6-1.2-1.2-2.9-1.5l-.6-.1c-1.8.1-3.4.9-3.7 3.3l-.1 1.4c0 1.7.4 2.4 1.1 3.2.7.8 2 1.6 3.5 2.6l1.1 2.7c-.2 1-1.1 1.8-2.2 1.9-2.9.2-4.5.5-4.8.7-1.5.8-1.9 1.8-2 3.9v.6c.1 2.1 1.5 3.7 4 5.3 2.5 1.5 6 2.5 9.1 2.9 1.2.2 2 1.2 2.1 2.3.1 1.2-.7 2.2-1.9 2.5-2.4.6-3.5 1.2-3.9 1.7l-.7 1.6-.3.7zm19.4-78.7c.2.9.5 1.4 1.1 2.1.4 0 .8-.1 1.2-.1h.5c1.2.1 2.5.3 3.9 1 .1 0 .1.1.2.2 1 .6 1.7 1.3 2.3 2.1.1.1.2.1.2.2.1.2.2.5.3.7.1.3.4.5.5.8v.1c.1.2.1.5.2.7.5 1.2.9 2.5 1.2 3.7.1.4.1.7.2 1.1 0 .2.1.4.1.5.1.7.2 1.3.3 2 .8-.3 1.8-.5 2.8-.5h.1c.4 0 .7.2 1.1.3.1-.1.2-.2.3-.4.1-.2.2-.3.3-.5.2-.3.4-.7.7-1 .3-.3.7-.5 1-.7.1 0 .1-.1.2-.2.1 0 .1 0 .2-.1.6-.4 1.2-.6 1.8-.8.2-.1.4-.2.6-.2.4-.1.7-.1 1.1-.1.1 0 .3-.1.4-.1l-.1-.1c-.9-.9-1.8-2.1-2.7-3.3-1.3-1.8-2.3-4-2.4-6.4l.1-.6v-.4c0-.1.1-.2.1-.3l.1-.7c.1-.3.2-.8.4-1.3 0-.2.1-.3.1-.5 0-.1.1-.2.1-.2.3-.7.6-1.3 1.1-1.8 0 0 .1 0 .1-.1v-.1c.3-.4.8-.5 1.2-.7.3-.2.5-.4.7-.5.7-.3 1.5-.4 2.1-.4.3 0 .5.1.7.1-.1-.4-.1-.8-.1-1.2 0-.1-.1-.3-.1-.4v-.4c0-1.4.3-2.6.7-3.6l-.5-.2h-.3l-.9.4c-.6.4-1.7 1.2-3.2 2.3l-2.8.1-1.2-2.5.2-2c0-1.7-.4-2.9-1-3.5-.5-.6-1.1-1-2.3-1-1.5 0-2.4.6-3.2 1.7-.8 1.2-1.4 3-1.4 5.2 0 2.1.8 4.1 2.3 6.6l-.3 2.9-2.9.5c-.6-.3-1.5-.9-2.7-1.5-1-.6-2.1-1.1-2.3-1.1l-1.8.8c-.4.5-.8 1.3-.8 2.4l.2 1m34.6-5.8c1.7-2.9 2.2-5 2.2-6.2 0-1.2-.4-1.7-.8-2.1l-1.5-.7c-.4 0-2 .4-3.2 1.5-.5.5-.9 1.1-1.3 1.8l-.3.6c-.3.8-.5 1.6-.6 2.7v.2c0 1.1.2 2.5.8 4.1v.1l-.6 2.6-1 .1-1.6.3h-.1c-.1 0-.1 0-.2-.1-1-.5-2.2-.9-2.8-.9l-.5.2c-.1.1-.1.1-.1.2s-.1.1-.2.3c0 .1-.1.4-.2.6-.1.3-.1.5-.2.9v.4c0 1.1.7 2.6 1.8 4 .2.2.2.4.4.6 1.4 1.7 3.1 3.2 4.2 4.1l1.2.9 1 2.6-.6.5-1.4 1.3h-.2l-.5.1c-1.2.2-2.3.2-3.4.3l-1.3.1h-.1c-1 .1-1.6.3-2.1.6-.1 0-.1.1-.2.1l-.4.4-.1.2c.3.2.6.4.8.7.3.4.5.8.7 1.1.3.4.6.8.8 1.3 0 .1 0 .2.1.2 0 .1.1.1.1.2l.2 1.1.3 1.4.1 1.9v1.4c1.5 1.6 4.6 4.7 6.3 5.5.1 0 .2.1.3.2.3.2.4.6.6 1 .7-.2 1.4-.5 2.1-.5h.7c.1 0 .3.1.4.1 1 0 2.1.3 3.2.6.2.1.5 0 .7.1.2.1.3.2.5.3.2.1.4.1.6.2.1.1.2.3.3.4 1 .8 1.9 1.7 2.3 2.7.5 1.2.6 2.3.7 3.4.4-.1.6-.3 1-.3h.5c.1 0 .3.1.4.1.7 0 1.4.2 2 .4.1 0 .2-.1.3-.1-.9-.9-1.8-1.9-2.7-3.1-.1-.2-.3-.4-.4-.6-.6-.9-1.2-1.9-1.7-2.9-.1-.2-.2-.3-.2-.4-.1-.3-.3-.8-.5-1.2-.2-.4-.4-.9-.5-1.4-.3-.8-.5-1.8-.6-2.7-.1-.4-.2-.6-.2-1v-.6c0-.3-.2-.6-.2-1 0-.9.2-1.8.5-2.7 0-.1.1-.2.1-.3.1-.3.2-.6.3-.8.2-.3.5-.6.7-.8.1-.2.2-.4.3-.5.1-.1.2-.1.3-.1.5-.5 1.1-.8 1.7-1.1.1-.1.2-.1.3-.2.1 0 .1-.1.2-.1-.8-1.3-1.4-2.7-1.4-4.2V323c0-.7.2-1.4.4-2 .2-.5.4-.9.6-1.3.1-.2.3-.5.4-.7.3-.4.7-.8 1.1-1.2.3-.3.6-.5.9-.8l.1-.1c.1-.7.2-1.5.2-2.3 0-1.5-.2-2.9-.6-4.3-.2-.7-.4-1.5-.8-2.2-.8-1.6-1.8-2.4-2.9-2.7h-.2c-.9-.1-2.8.8-4.3 1.4l-2.7-.8-.3-2.8m18.2 4c-1.1 0-2.2.1-2.8.2l.6 1.8c.5 1.9.8 3.7.8 5.2v.1c.7-.1 1.4-.2 2.2-.2 1.6 0 3.4.5 5.3 1.4.5.2 1 .3 1.4.6.1.1.2.2.3.2.1.1.2.1.3.2.3.2.5.5.8.7.1.1.3.2.4.4 1.1 1.2 1.8 2.5 2.1 3.8 0 .1 0 .1.1.2.1.4.2.8.2 1.2.6-.2 1.3-.5 2.1-.5h.2c.9 0 1.7.3 2.4.7.2.1.4.2.5.3.7.5 1.3 1.1 1.8 1.7h.1c0 .1 0 .1.1.2l.6.9c.2.3.2.7.3 1 .2.4.3.8.4 1.2.2.6.3 1.3.4 2 0 .1.1.3.1.4l.1 1.4c0 .2.1.3.1.5v.3c0 .3-.1.5-.1.8-.1.7-.1 1.3-.2 1.9v.2c0 .3-.2.6-.2.9-.2 1.1-.5 2.2-.8 3.2-.1.3-.2.5-.3.8 0 0 0 .1-.1.1l1.5-.1c1 0 2.2.2 3.4.6.3.1.5.1.8.2.1.1.2.1.4.1.8.4 1.6 1 2.3 1.7 0 .1.1.1.2.1.2.3.3.6.4.9l.6.9v-2.2c0-1.8-.1-3.7-.2-5.3-.2-2.5-.6-4-1-4.7-.4-.6-.8-1-2.7-1.3-1.2-.2-2.1-1.1-2.1-2.2-.1-1.2.6-2.2 1.7-2.6 1.4-.5 2.1-1.3 2.7-2.9.6-1.5.8-3.7.8-5.6l-.1-2.4c-.1-1.4-.4-2.7-.9-3.7-.6-1-1.2-1.6-2.4-2l-1.4-.3c-.4 0-1.2.1-2.3.1-.2 0-.3.1-.4.1h-1.1c-1.3-.1-2.3-1.2-2.3-2.6.1-1.3 1.2-2.4 2.5-2.4h1.3c1.6-.1 3-.6 3.8-1.3l1.3-2-1.1-2.8-1.8-1.3h-2c-1.1 0-2.1-.8-2.4-1.9-.3-1.1.3-2.3 1.3-2.8l.8-.6.3-1.5c-.1-3.6-2.1-6.5-5.6-7l-1-.1c-1.3 0-1.9.4-2.6 1-.6.6-1.2 1.8-1.5 3.5l-.2 1.7.3 1.6c.8 1.1.5 2.6-.6 3.4-1.1.8-2.6.6-3.4-.5l-.1-.1-1.1-1.8-.6-.2c-1.1 0-1.5.3-2 .9-.5.6-1 1.8-1.2 3l-.1.9c-.1 2 1.2 4.6 2.4 5.2 1 .6 1.4 1.9 1 3-.4 1.1-1.6 1.8-2.7 1.5h-2.1m55.8 204.9.9-2.7 20.9-15.2h-25.8c-1.1 0-2-.7-2.3-1.7l-12-35.9v63.3l25.4 16.1-7.1-23.9zm-30-120c.5-1.1 1-2.6 1.6-4.4.8-2.5 1.4-4.9 1.9-7.3v-4.9c-2.1-6.6-4.8-7-4.9-7.1-1.2-.2-2.2-1.2-2.1-2.5.1-2.6 1.1-4.4 2-6.5 1-2.3 1.1-3.5 1.1-4.7l-.1-1.2c0-.2-.1-.6-.2-1.2l-.9-4.1c-.1-.3-.2-.5-.4-.7l-1-1.1c-.1 0-.1-.1-.1-.1l-2.1-.4c-.8 0-1.8.1-2.8.4l-.3.1c-.9.3-1.9.6-2.7 1.1h-.1c-1 .6-2.3.3-3-.6v-3.1l.1-.1.4-.5 1.2-1.8c.4-.7.8-1.6 1.2-2.6 0-.1.1-.2.1-.3.3-.8.5-1.8.7-2.8.1-.6.2-1.2.3-1.9l.1-1v-.6c0-.3 0-.7-.1-1-.1-.6-.2-1.2-.3-1.6-.1-.2-.1-.3-.2-.4-.1-.3-.2-.5-.3-.7l-1-1c-.1 0-.4.1-.7.3-.2.1-.4.2-.7.5-.5.4-1.1.8-1.8 1.5l-.8.1-2.2.3c-.4-.2-.6-.6-.8-1 0-.1-.2-.1-.2-.2-.1-.4-.1-.7-.1-1.1 0-.2-.1-.3 0-.5.3-1.2.5-2.1.5-2.9v-.1c0-1.1-.2-1.8-.5-2.3 0-.1-.1-.1-.1-.1-.3-.5-.7-.8-1.1-1.1-.4-.2-.7-.3-1.1-.5-1.1-.5-2.3-.8-3.5-.7h-.2c-.7.1-1.4.2-1.9.3-.5.2-1 .5-1.4.7-1.5 1.1-2.1 2.1-2.1 2.9 0 .7.3 1.6 1.3 2.7s2.6 2.3 5.1 3.4c0 0 .1.1.2.1 1.2.6 1.6 2.1 1 3.3-.6 1.2-2 1.7-3.2 1.2l-.1-.1c-1-.5-2-.9-2.9-1.2-.2-.1-.4-.1-.6-.2-.8-.2-1.6-.4-2.1-.4l-1 .3-.4.3c-.1.1-.1.2-.2.4v.2c0 .2-.1.5-.1.9l.1 1v.2c.2 1.7.8 3.3 1.5 4.7.2.4.5.8.7 1.2.6 1 1.2 2 1.9 2.8.2.3.4.5.6.7.7.8 1.4 1.5 2.2 2.1.9.8 1.8 1.4 2.7 2.1l.1.1c1 .6 1.4 1.8 1 2.9-.4 1.1-1.6 1.8-2.8 1.6l-1.1-.1h-.8c.2.4.4.7.6 1.2l.1.1c0 .1.1.2.1.3.2.5.4 1 .6 1.6.2.5.2 1 .3 1.5.2.7.3 1.4.4 2.1.1.5.2 1.1.2 1.5 0 .1 0 .3.1.4.1 1.4.2 2.6.2 3.6 0 .6-.1 1.1-.1 1.7.8-.3 1.5-.7 2.4-.7l1.3.1c.1 0 .1.1.2.1h.1c.1 0 .2.1.3.1.7.2 1.4.5 2 .8.3.2.6.4.9.7.3.2.6.3.8.6.1.1.1.3.2.4l.3.3c.3.4.4.9.6 1.3l.3.6c.2.9.4 1.7.4 2.5v.4c0 1.1-.2 2.5-.4 4-.2 1.2-.3 2.4-.3 3.4 1.2-1 2.6-1.6 4.1-1.6h.1c3.1 0 5.6 2 7.4 4.9 1.6 2.6 2.6 6 2.7 9.8h.2l.4-.5.8-1.2v-.1c-.1-.7 0-1.1.2-1.6m-51-47.4zm-1-4.5c.7.4 1.4.8 2 1.4-.6-.5-1.2-1-2-1.4m2.5 34.4c-.5-.3-1-.5-1.5-.8.5.3 1 .6 1.5.8m-1.2 13c-.6-.3-1.2-.5-1.8-.7.6.2 1.2.5 1.8.7m21.9 23.1c-1.2-.6-2.1-1.3-2.9-2 .8.7 1.7 1.4 2.9 2m9.1-2.1c1.6.3 3.2.4 4.7.5.6 0 1.3.2 1.9.2 2.1 0 3.8-.2 5.2-.6.3-1.3.7-2.9.8-5 0-.4.1-.9.1-1.3v-1c0-.9.1-1.7.1-2.6V397c-.1-4.1-1-7.1-2.1-9-1.2-1.9-2.6-2.6-3.2-2.6-.4 0-1 .3-1.6 1-.3.4-.6.9-.9 1.6 0 .1-.1.2-.1.3l-.3.2-1.6 1.3h-.1l-.1.1-.8-.3-1.4-.5c-.1-.1-.1-.1-.1-.2h-.1c-.4-.5-.5-1.1-.8-1.6-.3-.6-.7-1.2-.9-1.8-.4-1.1-.5-2.2-.5-3.3 0-1.1.2-2.2.4-3.3.2-1.7.4-3.3.4-4.4v-.5c-.1-.6-.2-1.1-.3-1.3 0-.1-.1-.2-.1-.2-.1-.1-.2-.2-.3-.2-.1 0-.1-.1-.2-.1-.2-.1-.5-.2-.8-.3-.1 0-.2-.1-.3-.1h-.3c-.3 0-.8.1-1.4.5-.1.1-.2.1-.3.2-.6.4-1.2.9-2 1.7l-2.8.5-.3-.3c-.3-.2-.6-.5-.8-.8-.1-.2 0-.3-.1-.5-.1-.3-.2-.6-.2-.9.2-1.3.3-2.3.4-3.2v-.4c0-.4.1-.7.1-1.1 0-.6.1-1.3.1-2 0-1-.1-2.1-.2-3.3 0-.3-.1-.5-.1-.8-.1-.7-.2-1.4-.5-2.3-.3-1.1-.6-2.1-1-3.1-.1-.2-.2-.3-.2-.4-.3-.4-.5-.8-.7-1l-.3-.3-1.4-.6-.9.5-1 1-.2.2-.6.6-.2.2-1.8.1-1 .2c-.9-.5-1.4-1.6-1.1-2.7v-.3c.3-1.4.4-2.6.4-3.5v-.5c0-.7-.1-1.3-.3-1.7 0-.1-.1-.3-.1-.4l-.8-.9s-.1 0-.1-.1c-.5-.2-1.2-.4-2-.4h-.5c-.3 0-.6.1-.8.2-1 .2-1.7.6-2.2 1.1-.1 0-.2.1-.2.2h-.1c-.5.4-.9.9-1.2 1.5-.3.5-.5 1.2-.6 2.4 0 .3.2.7.2 1.1.1.6.2 1.2.5 1.8.4.9 1 2 1.9 3.1.1.1.1.2.2.3v1.6l.1 1.2-1.6.6-1 .4-1.6-.2h-.4l-1.8.4-.4 1.1.1.7c0 .2.1.4.2.6.1.5.4.9.7 1.4.3.4.6.9 1.1 1.3.3.3.6.7 1 1 .5.4 1 .7 1.5 1.1.9.6 1.7 1 2.5 1.5.8.4 1.6.8 2.5 1.1l.6.2c1 .3 1.7 1.3 1.7 2.4 0 1.1-.7 2-1.7 2.3l-2 .6-2.2.7c-.1 0-.1.1-.2.1l-2.4 1.2c-.7.7-1.2 1.3-1.2 2.5v.4c.1 1.1.5 2.2 2.3 3.7.9.7 2.1 1.4 3.5 2.1.2.1.3.2.5.3 1.6.8 3.4 1.5 5.7 2.2.8.3 1.3 1 1.5 1.9l.1.1v.1c0 .2.1.3.1.4-.1.7-.5 1.2-1 1.7l-.1.2-.1.1-.3.3-1 1-1.2 2.4.4.9.3.3.9.8c.8.3 1.8.5 2.9.5h.3c1.2 0 2.5-.2 3.4-.6l.4.1 1.8.2.1.1h.1l.3.7.6 1.1 1.1 2.3c.2.2.5.5.9.8l.1.1c.8.6 2.1 1.3 3.7 1.9 1.6.3 3.1.7 4.7 1m-9.6-57.2-.2-.2c0 .1.1.2.2.2M194.9 370.4c.9-.9 1.9-1.8 3.1-2.4-1.1.6-2.1 1.5-3.1 2.4m10.9 15c.2-.5.4-.9.7-1.3-.2.4-.4.9-.7 1.3m3.6-62.1-.9.6c.2-.2.5-.4.9-.6m33.6 73.1c-.1-.2-2.5-1.9-2.7-5.4 0-1.2.5-2.6 1.4-3.6.8-.9 2-1.9 3.2-3.4 1.1-1.4 2-3 1.9-4.4 0-1.6-.6-2.9-1.6-4s-2.4-2-3.4-2.4c-1.6-.6-3.2-1.4-4.6-2.3-.3-.2-.6-.5-.9-.8v38c2.6-.6 4.6-2.8 4.6-5.5 0-2.2-1.2-4-2.9-5 3.5.4 6.2 3.4 6.2 7 0 3.9-3.2 7.1-7.1 7.1-.3 0-.6-.1-.9-.2v3.7h1.2c.2 0 1.4.1 2.9.8 1.4.6 3.5 2.4 3.4 5.1v.6c-.1 1.3-.6 3.2-.6 5.3 0 1.6.3 3.1 1 4.1 1.3 1.8 3.4 2.4 5.5 2.5l2.4-.3c1.3-.4 2.6-.6 3.8-.6.6 0 1.1.2 1.6.2.3-1.7.9-3.4 2-5.1.8-1.1 1.5-3 1.4-4.7 0-1.2-.3-2.4-1.1-3.4-.8-1.1-2.4-2-4.2-2.4-1.8-.5-3.4-.6-4.5-.8-1.7-.3-3.1-1.5-3.7-2.8-.6-1.2-.7-2.4-.8-3.3 0-1.1.2-1.8.2-2l.1-.4c0-.1.4-1.1 1.3-2.1.8-1 2.3-2.4 4.6-2.5l2.2.5c.9.4 1.9 1.1 3.3 1.7 1.4.6 2.9 1.1 4.2 1.1l1.5-.2c1.5-.5 2.5-1.5 3.3-2.8.8-1.3 1.1-2.9 1.2-4 .1-1.9.6-3.7 1.3-5.3-1.5-.8-2.9-2-4.2-3.5-1.1-1.5-3.6-3.2-5.9-3.1l-1.7.3c-1.3.4-2.6 1.7-3.6 3.2-1 1.6-1.6 3-2.2 4.1-1.1 2-3.2 2.8-4.8 2.7-2.4-.1-4-1.1-4.1-1.2l-.2-.1-.1-.1.1-.3m-7.2-30.1.5-.2-.5.2zm120.4 77.4c8.6-23.2 14.1-50.8 14.6-83.4H236.3v3.3h.1c1.1 0 2 .7 2.3 1.8l1.4 1.4c.9.6 2.2 1.3 3.4 1.7 1.8.7 3.8 1.9 5.4 3.7 1.6 1.8 2.9 4.3 2.9 7.3 0 3.2-1.6 5.7-3 7.5-1.4 1.8-3.1 3.2-3.3 3.5l-.2.4.9 1.5.3.2 1.1.2.5-.3c.2-.3 1-2.3 2.3-4.3 1.3-2 3.2-4.2 6.2-5.2 1.1-.4 2.2-.5 3.2-.5 4.4 0 7.8 2.6 9.8 5 1.5 2 3.3 2.8 4.3 2.8 1.1 0 2 .7 2.4 1.7l-.9 2.8c-.8.5-1.8 2.2-1.9 4.8-.1 1.9-.6 4.2-1.8 6.3-1.2 2.1-3.2 4.1-6 5l-3 .5c-2.4 0-4.5-.7-6.2-1.5-1.6-.7-3-1.5-3.3-1.7l-.3-.1-.6.4-.6 1v.6l.2 1 .4.2c.4.1 2.5.3 4.8.9 2.3.6 5 1.8 6.9 4.3 1.4 2 2 4.3 2 6.3 0 3-1 5.6-2.3 7.4-1 1.5-1.4 3-1.4 4l.2 1-.9 2.8h-2.9c-.5-.4-1.4-.7-2.6-.7l-2.5.4c-1.1.3-2.3.5-3.7.5-3.1 0-7-1.1-9.5-4.5-1.6-2.3-2-4.8-2-7 0-2.7.6-5.3.7-5.7v-.1l-.4-.6-1.3-.4h-.8v21l.9 2.7h118.7zM171.4 296.1c.1-.3.2-.5.4-.8-.2.3-.3.6-.4.8M143.7 335c-1.4.1-2.8.5-4 3.4l-.2 1.3c0 1.8.9 4.6 5.2 7.3l3.8 1.9c.9.5 1.5 1.5 1.3 2.5-.1 1.1-.9 1.9-2 2.1-1.9.3-3.8.7-5 1.3-.9.6-1.2 1-1.4 1.8l.8.7.1.1c.1.1.2.2.3.2l.1.3.1.1c.1.1.1.3.2.4l.7 1.7.5 1.5c.5.6 1.3 1.1 2.8 1.2h.7c.5 0 .8.2 1.2.3.9.1 1.8.3 2.5.6.1.1.4.1.5.1l.4.3.9.8c.2.2.5.3.8.5.1.1.2.3.3.4l.2.2.5.5c.2.3.3.6.5.9.2.4.5.9.7 1.3.2.5.4 1.1.5 1.6.1.2.2.5.2.7v.8c0 .4.2.6.2 1v.3c0 1.1-.4 2.3-1.2 3.1l-.3.1c-.6.5-1.2.8-1.7.9h-.2l-.1.1c-1 .2-1.7.2-2 .3 0 .5.3 1.2.6 1.8.2.4.6.8 1 1.3.2.3.5.5.8.8.5.5 1.1 1 1.8 1.5s1.5 1 2.3 1.5c.3.1.5.3.7.4 1.2.6 2.4 1.2 3.5 1.6l.8.3h.2s.1 0 .1-.1l.2-.3c.2-.2.4-.2.6-.3.2-.1.4-.3.7-.4.7-.3 1.4-.5 2.1-.4h.3c.1 0 .3.1.4.1l1.1.1c.2.1.4.1.6.2-.1-.2-.1-.5-.2-.7-.5-1.1-.9-2.2-.9-3.5V380.6c.1-1 .4-2.1.8-3.2.3-.6.5-1.2 1-1.7.3-.3.7-.5 1.1-.8 0 0 0-.1.1-.1.1-.1.1-.1.2-.1.6-.5 1.1-.8 1.7-1.1.2-.1.4-.3.6-.4-1-.6-2.1-1.4-3.1-2.2-.1-.1-.3-.2-.5-.3-.1-.1-.1-.2-.2-.2-1-1-1.9-2.1-2.6-3.2-.2-.3-.2-.6-.4-1-.3-.6-.6-1.2-.7-1.9l-.1-1.2c0-.2-.1-.3-.2-.5 0-.2.1-.3.1-.5.1-1 .3-1.9.7-2.8 0-.1 0-.2.1-.3.7-1.4 2-2.2 3.1-2.5.2-.1.3 0 .5-.1s.5-.2.8-.2c-.1-.2-.2-.5-.3-.7 0-.1-.1-.2-.1-.3-.5-1.2-.8-2.5-.9-4v-.5c0-.4.2-.6.3-1 .2-1.3.4-2.5.9-3.4.2-.5.5-.7.7-1.1-.2-.2-.3-.5-.4-.7-.1-.1-.2-.2-.3-.2-.5-.3-1-.5-1.9-.7h-.3l-3.5 1.8-.4.3-3.3-.1-.3-3.3c2.6-3.5 3.3-5.4 3.6-7.3l.1-1.8v-.1c0-1.1-.1-2.2-.4-3 0-.1-.1-.1-.1-.2l-1.5-1.6c-.1 0-.1-.1-.1-.1l-1.9-.5c-.1 0-.2.1-.3.1-.5 0-1 .2-1.5.5-.6.3-1.1.7-1.5 1.2 0 0-.1.1-.2.1l-1 .2-1.7.4v-.1h-.1l-.6-1-.8-1.2v-2.1c0-.3-.1-.7-.1-1-.1-1.1-.1-2.1-.4-3.3-.2-1.2-.6-2.5-1.1-3.8-.1-.3-.2-.6-.4-.8l-1.1-1.3-2-.4h-.1c-2 0-2.7.5-3.3 1.2-.6.7-1.1 2.2-1.1 4.3v.1c0 1 .7 3.8 1.5 6.1s1.5 4.2 1.5 4.2l-.4 2.5-2.3.9-.5.4m8.3 38.2zm.4-.4zm16.7 43.5zm-19.6 10.8zm.6-.5c-.1.1-.2.3-.3.4l2.2-1.1c-.3-.2-.7-.3-1-.6-.1-.1-.1-.2-.2-.2-.3.6-.4 1-.7 1.5m27.7 14.9c-.1.6-.2 1.4-.3 2.2h39.1c-1.1-5-1-9-3.8-14-1.3-2.3-3.3-4.9-6.4-7.9-3 .4-5.9.8-7.5 2-2.1 1.4-3.3 3.8-4.2 6.8-.9 2.9-1.5 6.1-3.4 8.8-1.3 1.8-3.7 3.2-6.4 3.3h-.5c-1.4 0-2.9-.3-4.3-1-.6-.3-1.3-1-1.9-1.5-.2.4-.3.7-.4 1.3m193.1-173.4H236.3v83.3h134.6v-83.3zm-142.6 0H93.7v37.4h47.8c.3-1.1.8-2.2 1.6-3.1 1.3-1.6 3.4-2.5 5.7-2.5.6 0 1 .1 1.4.2-.2-.9-.5-1.7-.5-2.7 0-3 .7-5.8 2.3-8 1.5-2.3 4.2-3.8 7.2-3.8 2.4 0 4.7 1 6.1 2.8 1 1.2 1.5 2.7 1.8 4.4.9-.5 1.8-1 2.8-1h.8c1.2 0 2.3.3 3.3.8.1-.1.2-.3.2-.4 2.1-1.8 4.4-2.7 6.5-2.8h.5c1.4.2 3 .7 4.4 2 1.4 1.2 2.4 3.3 2.3 5.7 0 1.1-.3 2.3-.6 3.6.3 0 .5-.1.8-.2l1.2.1c1.8.3 3.2 1.3 4.4 2.5.6-.2 1.2-.5 1.6-.6.2 0 .6-.1.9-.1-.7-1.6-1-3.3-1.1-4.9l.2-1.8c.3-1.7.9-3.5 2.2-5.1 1.2-1.6 3.4-2.8 5.9-2.8.3 0 .5.1.7.2v-.2c.4-2.4 1.2-4.5 2.8-6.1 1.5-1.6 3.8-2.5 6.1-2.5l1.6.1c6.3.9 9.9 6.4 9.9 11.9 0 .9-.2 1.8-.4 2.6 1.2.6 2.3 1.4 3.2 2.4.4.5.7 1.1 1 1.8v-29.9zM93.7 351.3h23.5c1.4-3.6 4.7-5.6 7.9-5.6l1.5.1c2.6.4 4.7 1.6 6 3.5.4.6.7 1.3.9 2h5.7c.4-.3.8-.6 1.3-.8.1-.1.2-.1.4-.1-4.5-3.3-6.4-7.3-6.4-10.7 0-1.1.2-2.1.5-3 1.2-3.4 3.6-5.4 6.1-6.2-.2-.4-.3-.9-.5-1.3-.8-2.5-1.7-5.3-1.7-7.7v-.2c.1-2.5.6-4.8 2-6.8H93.7v36.8zm.1 9c.2 13.2 1.2 25.7 2.9 37.3h32.2c-.6-.4-1.2-.7-1.8-1.1-2.7-2.2-5.2-5-5.3-8.7l.1-1.3c.2-1.2.7-2.8 2-4.1-1.5-.5-3-1.1-4.3-1.8-3.3-1.9-6.2-4.9-6.4-9.2v-.9c-.1-3.1 1.2-6.6 4.7-8.3l.9-.3c-.4-.4-.6-1-.9-1.5-6.2-.1-17.6-.1-24.1-.1m18.1 92.4c5.9 14 12.9 26.4 20.6 37.2H211c.9-1.6 1.8-3.4 3.3-5.5.1 0 .6-1.6 1-3.6.4-2.1.8-4.8 1.1-7.8.6-6 1-13.2 1-19v-1.3h-55.6c-.1.5-.1.9-.3 1.5-.7 1.9-2.1 3-3.6 4-1.6.9-3.4 1.7-5.4 1.7-2.1 0-4.2-.4-6-1.7-1.6-1.2-2.4-3.3-2.5-5.5h-32.1zm27.2 46.1c5.8 7.3 11.9 13.9 18 19.7 29 27.7 59.5 40 71.2 43.9v-40.2h-.1c-2.7 0-6.4.5-9.1 2-2.2 1.3-3.9 2.7-5.9 5.4-2 2.7-4.2 6.7-7 12.9l-2.4 1.4-2.2-1.6c-.1-.2-1.3-3.7-1.3-8.8 0-4.5 1-10.2 4.8-15.7.5-.7.9-1.3 1.3-1.8-1.3.5-2.5.9-3.9 1.1-1.1.1-2.2.1-3.2.1h-2.6c-4.1.1-7.2.2-14 6.6l-3 .3c-1-.6-1.4-1.7-1.1-2.8 1.9-6.8 4.2-10.8 7.5-13.6 3.3-2.7 6.9-4.1 11.6-6.6 2-1.1 3.5-1.8 4.9-2.5h-63.5zm25.4-90zm-3 45.3zm4.2-150.1zm-26.6 17.2zm65-33.5zm63.1 56.6c-7.9 0-13.3-2.1-13.5-2.2l-1.6-2.3v-58.9l1-2 2.2-.4 1.5.4c.9.2 2.2.4 3.3.4h.1v-1.4l.8-1.4.4-.7 2.4-.1.2.1 1 .3c1 .2 2.5.5 4.6.5 2.8 0 6.6-.5 11.5-2.1 3.4-1.2 6.6-1.6 9.5-1.6 6.5 0 11.1 2.3 13.4 3.6 2.2-1.3 6.8-3.6 13.3-3.6 2.9 0 6.1.5 9.5 1.6 4.9 1.7 8.7 2.1 11.5 2.1 3.7 0 5.6-.8 5.8-.9l2.4.1.4.7.8 1.4v1.4h.1c1.2 0 2.5-.2 3.5-.4l1.6-.4 2.2.4 1 2v58.9c0 1-.7 2-1.6 2.3-.2.1-5.9 2.1-13.9 2.1-2.9 0-6.1-.3-9.4-1-2.9-.7-5.8-1-8.5-1-6.6 0-12.5 1.7-17.6 4.2l-2.4-.1-.1-.2c-5-2.4-10.8-4-17.1-4-2.8 0-5.8.3-8.9 1.1-3.2.8-6.5 1.1-9.4 1.1m80.9-60.1h-.1v48.6l-1.2 2.1c-1.5.8-3 .9-4.7.9-4.5 0-10.8-1.2-16.7-2-1.9-.2-3.6-.3-5.1-.3-9.5.1-12.8 3.8-13.6 5.1v1.9c4.9-1.9 10.3-3.2 16.3-3.2 3.1 0 6.3.3 9.6 1.1 2.9.7 5.7.9 8.3.9 4.7 0 8.5-.8 10.6-1.3v-54.1c-1.1.1-2.3.3-3.4.3m-22.7-5c-2.9-1-5.6-1.4-7.9-1.4-5.5 0-9.3 1.9-10.9 2.9V332c2.9-1.8 7.2-3.5 13.6-3.5 1.8 0 3.7.1 5.7.4 6 .8 12.5 1.9 16.1 1.9l1-.1v-49.1c0-.2-.2-.3-.2-.5v-.1c-1.2.2-2.6.4-4.4.4-3.3.1-7.6-.4-13-2.2m-55.7 2.3c-1.8 0-3.2-.2-4.3-.4v.1c0 .2-.1.3-.2.5v49.1c.3 0 .6.1 1 .1 3.6 0 10.1-1.1 16.1-1.9 2.1-.3 4-.4 5.7-.4 6.4 0 10.8 1.6 13.6 3.5v-51.3l-2.1-1.1c-2.1-.9-5.1-1.8-8.8-1.8-2.4 0-5 .4-7.9 1.4-5.4 1.7-9.8 2.2-13.1 2.2m-9.5 2.7c-1.2 0-2.2-.1-3.2-.2v54l1.6.4c2.1.5 5 1 8.5 1 2.6 0 5.5-.3 8.5-1 3.5-.8 6.8-1.2 10-1.2 5.8 0 11.1 1.2 15.8 3.1v-1.7l-.2-.2-2-1.9c-2-1.4-5.5-2.9-11.4-3-1.5 0-3.2.1-5.1.3-5.9.8-12.3 1.9-16.7 2-1.7 0-3.2-.1-4.7-.9l-1.2-2.1v-48.6M358 390.4c1.1 0 2.1.7 2.4 1.7l-.9 2.8c-.8.5-1.8 2.2-1.9 4.8-.1 1.9-.6 4.2-1.8 6.3-1.2 2.1-3.2 4.1-6 5l-3 .5c-2.4 0-4.5-.7-6.2-1.5-1.6-.7-3-1.5-3.3-1.7l-.3-.1-.6.5-.6 1v.6l.2 1 .4.2c.4.1 2.5.3 4.8.9 2.3.6 5 1.7 6.9 4.3 1.5 2 2 4.3 2 6.3 0 2.9-1 5.5-2.3 7.4-1 1.5-1.4 3-1.4 4l.2 1-.9 2.8h-2.9c-.5-.4-1.4-.7-2.6-.7l-2.5.4c-1.1.3-2.4.5-3.7.5-3.1 0-7-1.1-9.5-4.5-1.6-2.2-2-4.8-2-7 0-2.7.6-5.3.7-5.7v-.1l-.5-.5-1.3-.4h-.1l-.9.3-.6.6v.1c0 .5.7 3 .7 5.7 0 2.2-.4 4.7-2 7-2.5 3.4-6.3 4.5-9.5 4.5-1.3 0-2.6-.2-3.7-.5l-2.5-.4c-1.2 0-2.1.3-2.6.7h-2.9l-.9-2.8.2-1c0-1-.4-2.5-1.4-4-1.2-1.9-2.2-4.5-2.3-7.4 0-2.1.5-4.3 2-6.3 1.9-2.6 4.6-3.7 6.9-4.3 2.2-.6 4.4-.8 4.8-.9l.4-.3.2-1-.1-.6v-.1l-.5-.7-.8-.6-.3.1c-.3.1-1.7.9-3.3 1.6-1.7.7-3.8 1.5-6.2 1.5l-3-.5c-2.8-.9-4.8-2.9-6-5-1.2-2.1-1.8-4.3-1.8-6.3-.1-2.6-1.1-4.3-1.9-4.8l-.9-2.8c.3-1 1.3-1.7 2.3-1.7h.1c1 0 2.8-.8 4.3-2.8 1.9-2.4 5.3-5 9.8-5 1 0 2.1.2 3.2.5 3 1 4.9 3.3 6.2 5.2 1.3 1.9 2.1 4 2.3 4.3l.5.3 1.5-.5.4-.5.5-1-.2-.4c-.2-.3-1.9-1.7-3.4-3.5-1.5-1.9-3-4.4-3-7.5 0-3 1.3-5.5 2.9-7.3 1.6-1.8 3.6-3 5.4-3.7 2.4-.9 3.7-2.3 3.9-3.3.3-1 1.3-1.7 2.4-1.7 1.1 0 2 .7 2.4 1.7.3.9 1.6 2.4 4 3.3 1.8.7 3.8 1.9 5.4 3.7 1.6 1.8 2.9 4.3 2.9 7.3 0 3.2-1.6 5.7-3 7.5-1.5 1.8-3.1 3.2-3.3 3.5l-.2.4.9 1.5.3.1 1.1.3.5-.3c.2-.3 1-2.3 2.3-4.3 1.3-2 3.2-4.2 6.2-5.2 1.1-.3 2.2-.5 3.2-.5 4.4.1 7.9 2.6 9.8 5 1.2 2.2 3 3 4 3m-9.9 15.8c1.5-.5 2.5-1.5 3.3-2.8.8-1.3 1.1-2.9 1.2-4 .1-1.9.6-3.7 1.3-5.3-1.5-.8-3-2-4.2-3.5-1.1-1.5-3.6-3.2-5.9-3.1l-1.7.3c-1.3.4-2.6 1.7-3.6 3.2-1 1.6-1.6 3.1-2.2 4.1-1.1 2-3.2 2.8-4.8 2.7-2.4-.1-4-1.1-4.1-1.2l-.2-.2-.1-.1-.1-.1c-.1-.2-2.5-1.9-2.7-5.4 0-1.2.5-2.6 1.4-3.6.8-.9 2-1.9 3.2-3.4 1.1-1.4 2-3.1 2-4.4 0-1.6-.6-2.9-1.6-4s-2.4-2-3.4-2.4c-1.8-.7-3.4-1.7-4.6-2.9-1.2 1.2-2.8 2.2-4.6 2.9-1.1.4-2.4 1.2-3.4 2.4-1 1.1-1.6 2.4-1.6 4 0 1.4.8 3 2 4.4 1.2 1.4 2.4 2.5 3.2 3.4 1 1 1.4 2.4 1.4 3.6-.2 3.5-2.6 5.1-2.7 5.4l-.3.2c-.2.1-1.8 1.2-4.2 1.2-1.5.1-3.7-.8-4.8-2.7-.6-1-1.2-2.5-2.2-4.1-1-1.5-2.3-2.8-3.6-3.2l-1.7-.3c-2.3-.1-4.8 1.6-5.9 3.1-1.2 1.5-2.6 2.7-4.2 3.5.8 1.6 1.2 3.3 1.3 5.3 0 1.1.4 2.7 1.2 4 .8 1.3 1.8 2.3 3.3 2.8l1.5.2c1.3 0 2.8-.5 4.2-1.1 1.4-.6 2.4-1.2 3.3-1.7l2.2-.5c2.3 0 3.8 1.5 4.6 2.5.8 1.1 1.2 2 1.3 2.1l.1.4c0 .1.2.9.2 2 0 .9-.1 2.1-.7 3.3-.6 1.2-2 2.4-3.7 2.8-1.2.2-2.7.3-4.5.8-1.8.5-3.4 1.3-4.2 2.4-.8 1.1-1.1 2.2-1.1 3.4 0 1.7.7 3.6 1.4 4.7 1.1 1.6 1.7 3.4 2 5.1.5-.1 1.1-.2 1.6-.2 1.2 0 2.5.2 3.9.6l2.3.3c2.1 0 4.2-.7 5.5-2.5.7-1 1-2.5 1-4.1 0-2.1-.5-4-.6-5.3v-.6c0-2.8 2.1-4.5 3.5-5.1 1.5-.7 2.7-.8 2.9-.8h.4c.2 0 1.4.1 2.9.8 1.4.6 3.6 2.3 3.5 5.1v.6c-.2 1.3-.6 3.2-.6 5.3 0 1.6.3 3.1 1.1 4.1 1.3 1.8 3.3 2.4 5.5 2.5l2.3-.3c1.3-.4 2.6-.6 3.8-.6.6 0 1.1.1 1.6.2.3-1.7.9-3.4 2-5.1.8-1.1 1.5-3 1.4-4.7 0-1.2-.3-2.4-1.1-3.4-.8-1.1-2.4-2-4.2-2.4-1.8-.5-3.4-.6-4.5-.8-1.7-.3-3.1-1.5-3.7-2.8-.6-1.2-.7-2.4-.7-3.3 0-1.1.2-1.8.2-2l.1-.4c.1-.1.4-1.1 1.3-2.1.8-1 2.3-2.4 4.6-2.5l2.2.5c.9.4 1.9 1.1 3.3 1.7 1.3.6 2.9 1.1 4.2 1.1h1.3zm-34.3-11.7-.4-.4.4.4zm14.5.4.4-.5-.4.5zm-103.1 4.8zm31.4-16.6zm-67.5-82.5zm.5 48.2zm61.5 67.5zm70.9-18.8c1.8 1 2.9 2.9 2.9 5 0 3.2-2.6 5.8-5.8 5.8-2.1 0-4-1.2-5-2.9.4 3.5 3.4 6.2 7 6.2 3.9 0 7.1-3.2 7.1-7.1 0-3.6-2.7-6.6-6.2-7m801.9-183.7c-4.7-.8-9.8-2.4-13-6.2-2.5-3-3.3-7-3.7-10.7-.4-4.7-.4-136.3-.4-136.3 0-4.9-.1-9.8.2-14.7.1-1.9.5-4 1.7-5.5 1.1-1.4 3.1-2 4.8-2.2 2.6-.4 5.3-.4 8-.4 10-.1 20.2-.2 30 1.7 5.2 1 10.5 2.7 14.4 6.4 4.4 4.2 6.2 10.1 7.3 15.9.5 3 .5 6.6 1.9 9.3.7 1.4 2.6 2.7 4 1.4.4-.4.6-.8.8-1.3.7-2.1.3-4.6.3-6.8V41.2c0-2.4.3-5 0-7.4-.2-1.1-.5-2.3-1.2-3.2-1.2-1.5-3.2-1.8-5-2-3.1-.2-6.3.1-9.4.3-17.4.9-35 1.4-52.3 1.5-7.4.1-14.8.1-22.2.1-7.2 0-14.4 0-21.6-.1-5.8-.1-11.6-.2-17.5-.3-10.5-.2-21-.7-31.6-1.2-3.1-.2-6.2-.5-9.2-.4-2.2.1-4.8.3-6.2 2.2-1.8 2.2-1.2 5.9-1.2 8.5 0 8 .1 16 0 24 0 1.9-.1 3.8.1 5.7.1 1.5.3 3.5 2.1 4 3.5 1 4.1-4.6 4.4-6.8 1.1-6.9 2-14.1 7-19.4 4.1-4.3 9.8-6.1 15.5-7.2 4.5-.8 9-1.3 13.6-1.5 7-.3 14.2-.5 21.2-.1 2.7.2 5.5.4 7.6 2.2 1.6 1.4 2 3.4 2.1 5.4.3 5.3.2 10.1.2 16l-.2 126.7c0 5 .1 10-1.4 14.8-1.4 4.2-4.6 7.2-8.6 8.9-4.7 2-9.8 2.2-14.8 2.9-2 .2-5.1.6-5.7 3-.6 2.4 1.8 4 3.8 4.3 2.5.4 5.3 0 7.8-.2 2.6-.2 5.2-.3 7.8-.5 4.4-.2 8.8-.4 13.3-.5 5.7-.1 11.5-.2 17.3-.1 5.2 0 10.4.1 15.6.3 4.5.2 9 .4 13.6.7 3 .2 6.1.8 9.1.1 2.2-.5 4.6-2.3 3.4-4.8-.9-1.9-3.7-2.1-5.6-2.4-2.9-.4-5.5-.4-8.1-.9M931.6 443.6c-4.7-.8-9.8-2.4-13-6.2-2.5-3-3.3-6.9-3.7-10.7-.4-4.7-.3-9.4-.3-14.1l-.1-122.2c0-4.9-.1-9.8.2-14.7.1-1.9.5-4 1.7-5.5 1.1-1.4 3.1-2 4.8-2.2 2.9-.4 5.9-.4 8.9-.4h-1.4c5.4 0 10.8 0 16.3.2 4.8.2 9.6.6 14.3 1.5 5.2 1 10.5 2.7 14.4 6.5 4.3 4.2 6.2 10.1 7.3 15.9.5 3 .5 6.6 1.9 9.3.7 1.4 2.5 2.7 4 1.4.4-.3.6-.8.8-1.3.7-2.1.3-4.6.3-6.8v-23.1c0-2.5.3-5 0-7.4-.2-1.1-.5-2.3-1.2-3.2-1.2-1.5-3.2-1.8-5-2-3.1-.2-6.3.1-9.4.3-3.1.2-6.1.3-9.2.5-3.6.2-7.3.3-10.9.4-4.7.2-9.5.3-14.3.4l-18 .3c-7.4.1-14.8.1-22.2.1-7.2 0-14.4 0-21.6-.1-5.8-.1-11.6-.2-17.5-.3-10.5-.2-21-.7-31.6-1.2-3-.1-6.2-.5-9.2-.4-2.2.1-4.8.3-6.2 2.1-1.8 2.2-1.2 5.9-1.2 8.5 0 8 .1 16 0 24 0 1.9-.1 3.8.1 5.7.1 1.5.3 3.5 2.1 4 3.5 1 4.1-4.6 4.4-6.8 1.1-6.9 2-14.1 7-19.4 4.1-4.3 9.8-6.2 15.5-7.2 4.5-.9 9-1.3 13.6-1.5 7-.3 14.2-.5 21.2-.1 2.7.2 5.5.4 7.6 2.2 1.6 1.4 2 3.4 2.1 5.4.3 5.3.2 10.1.2 16L884 418c0 5 .1 10-1.4 14.8-1.4 4.2-4.6 7.1-8.6 8.9-4.7 2-9.8 2.2-14.8 2.9-2 .2-5.1.6-5.7 3-.6 2.4 1.8 4 3.8 4.4 2.6.4 5.3 0 7.9-.2 2.6-.2 5.2-.4 7.8-.5 4.4-.2 8.8-.4 13.3-.5 5.7-.1 11.5-.2 17.3-.1 5.2 0 10.4.1 15.6.3 4.5.2 9 .4 13.5.7 3 .2 6.1.8 9.1.1 2.2-.5 4.6-2.3 3.4-4.8-1-1.9-3.7-2.1-5.6-2.4-2.8-.5-5.4-.6-8-1m237.2 62.9c0-.4-.2-.7-.7-.9-.9-.5-2.2-.2-3.2-.1-1.9.2-3.8.3-5.7.3-2.9 0-5.8-.5-8.7-.3-1.5.1-4.2 1.2-2.4 3.1 1.3 1.3 3.7.7 5.2 1.8 2.2 1.7.4 5.3-.5 7.2-3.3 6.5-7.2 12.7-11 18.9-.9 1.6-1.8 3.3-2.9 4.7-1.7-2.6-2.9-5.6-4.4-8.4-1.5-2.8-2.9-5.6-4.4-8.4-1.3-2.6-2.6-5.1-4-7.7-.9-1.7-2.4-4.3-1-6.2 1.4-2 4-.8 5.8-2 .9-.6 1.1-1.7.5-2.6-.8-1-2.3-.8-3.4-.8-6.1 0-12.1.7-18.2.2-1.7-.2-5.1-.9-6.1 1.1-1.2 2.4 2.6 3 4 3.4 2.6.7 3.9 2.8 5.2 5.1l4.2 7.8c3 5.5 6.1 11 9.1 16.5.7 1.2 1.3 2.4 2.1 3.5.6 1 1.4 2.1 1.5 3.3.2 1.8 0 3.7 0 5.6v9c0 2.2-.1 4.7-2.1 6-1.1.7-2.5 1-3.8 1-1.1.1-2.4.1-3 1.1-.6 1-.3 2.2.7 2.8 1.1.6 2.5.3 3.8.1 1.8-.2 3.7-.2 5.5-.3 3.8-.1 7.6-.1 11.5.1 1.6.1 3.3.3 4.9.3 1 0 2.4 0 2.9-1 1-1.9-1.3-2.8-2.7-3.1-1.8-.4-3.9-.3-5.2-2-1.4-1.8-1.2-4.4-1.2-6.6 0-4.3-.2-8.6-.1-12.9 0-1.7 1.3-3.1 2.2-4.4 1.1-1.6 2.1-3.2 3.1-4.8l6-9.9c1.9-3.3 3.9-6.6 5.8-9.9 1.7-2.8 3.2-5.9 6.3-7.4 1.1-.6 2.5-.8 3.6-1.5.6-.4.9-1.1.8-1.7m-83.2 4.5v-1c0-1.2.3-3.1-.4-4.2-.6-.9-1.9-1-2.9-1-1.9 0-3.8.2-5.7.2-4.5.2-9.1.3-13.6.4-6.7.1-13.4.1-20 0l-15-.3c-2.4-.1-4.7-.2-7.1-.3-1.6 0-3.4.1-3.8 1.9-.3 1.6-.1 3.4-.1 5.1 0 1.8-.1 3.6 0 5.5 0 1.1-.2 3.3 1.1 3.8 1 .4 1.7-.3 1.8-1.2.4-2.1.5-4.4 1.6-6.3 2.6-4.8 10.2-4.2 14.8-4.2h4.5c1.1 0 2.5-.1 3.6.4 1.2.6 1.4 2 1.4 3.2.2 6.9.2 35.1.2 42.3 0 2.8.3 6.3-.7 9-.8 2.4-3.3 3-5.6 3.3-1.1.2-2.6.1-3.5.9-1.1.9-.8 2.5.5 3.1 1.3.6 2.9.1 4.3.1 1.8-.1 3.6-.2 5.4-.2 3.7-.1 7.3-.1 11 0 1.8.1 3.5.2 5.2.3 1.3.1 3.4.4 4.4-.8 2.4-2.9-4.1-3.3-5.4-3.6-3.1-.8-4.3-2.6-4.4-5.7-.2-3.4-.2-6.8-.2-10.2 0-7.2.1-35.7.1-37.8 0-1.7-.1-3 1.7-3.6 2.7-.9 6-.6 8.8-.6 2.8 0 5.8 0 8.5.6s4.8 2 5.8 4.7c.5 1.5.7 3 .9 4.5.2 1.4 1.7 3 2.7 1.1.7-1.4.3-3.5.2-5-.1-1.5-.1-2.9-.1-4.4M936 539.7c-.6-.6-1.2-1.2-1.8-1.7-4.9-4.2-11-6.5-16.8-9.2-4.7-2.1-10.5-4.9-10.5-10.9 0-4.9 3.9-8.8 8.5-9.7 5.3-1 10.9.9 14.2 5.3 1.8 2.4 2.5 5.3 3.7 8.1.5 1.1 1.3 2.1 2.6 1.4 1.1-.6 1.1-2.1 1.1-3.2 0-3.5-.3-7-.1-10.4.1-1.2.3-2.7-.3-3.7-.6-1.1-1.8-1.1-2.7-.3-.8.8-1.2 2.2-1.5 3.3-2.6-1.3-5-2.9-7.8-3.8-2.8-.9-5.8-1.2-8.7-.9-5.7.5-11.3 3.1-14.5 8-3.1 4.7-3.7 10.7-1.9 16 1.8 5.6 6.3 9.4 11.5 11.9 4.7 2.3 10 3.7 14.3 6.8 4.2 2.9 6.5 7.3 5.7 12.5-.8 4.9-4.4 8.6-9.3 9.6-5.5 1.2-11.6-.3-15.6-4.4-2.1-2.2-3.6-4.9-4.5-7.8-.4-1.3-1.1-7.8-3.9-5.8-1 .8-.8 2.3-.8 3.4.1 1.6.2 3.2.2 4.8.1 3-.2 5.9-.5 8.9-.1 1.3.3 3.6 2.1 3 1.2-.4 1.7-2.1 2.3-3.1 2.6 1.4 5 3 7.9 4 2.8 1 5.8 1.5 8.8 1.5 5.9 0 12-1.7 16.6-5.5 4.4-3.6 6.8-8.7 7-14.4.1-5.2-1.8-10-5.3-13.7m-58.4 28.6c.9.5 1.8 2 .9 2.9-1 1.1-3.2.5-4.4.4-1.6-.1-3.2-.2-4.8-.2l-4.5.1c-2.1 0-3.2 0-4.6-1.8l-20.8-26.1c-.9-1.3-2.4-2-4-1.9H834v17.7c0 2.2.1 3.6.5 4.8.4 1.2 1.3 2 2.3 2.4 1.2.6 2.6.6 3.9.9.5.1 1.1 0 1.5.3 1.4.8 1.1 3.2-.5 3.6-1.1.3-2.4.1-3.5 0-1.2-.1-2.4-.2-3.6-.2-2.1-.1-4.2-.1-6.3-.1-2.1 0-4.2 0-6.3.1-1 0-2 .1-3.1.2-1 .1-2 .3-3 .2-.9-.1-2.1-.4-2.4-1.3-.3-.9.2-1.9 1-2.3.6-.3 1.3-.4 2-.5 2.2-.2 4.9-.8 5.7-3.2.4-1.2.5-2.6.5-4.8v-42.7c0-2.1-.1-3.5-.5-4.7-.6-1.8-2.3-2.5-4-2.8-.6-.1-1.3-.2-1.9-.3-.8-.1-1.8-.2-2.4-.8-.6-.5-.6-1.8 0-2.3.3-.3.8-.4 1.2-.5 1-.2 2.1-.1 3.2-.1 1.7.1 3.4.1 5.2.1 6.9 0 13.1-.5 18.4-.5 8.1 0 14.3 1.3 18.3 4 5.9 4 7.3 12.1 5.5 18.7-1.8 6.7-7.9 10.4-14.4 11.8l-1.8.4 19.7 23.1c2 2.3 4.3 3.5 6.1 4.3.9.5 1.6.7 2.3 1.1m-43.5-34.8v2.9c0 .2-.2 1.2 0 1.4.2.2.7.1 1 .1 4.7 0 10.2-.1 14.3-2.8 4.7-3.1 5.3-9.2 4.7-14.3-.6-5.3-3.5-9.5-8.6-11-2.7-.8-5.9-1.2-8.7-.9-1.5.1-2.5.7-2.6 2.2-.1 1.6-.1 3.3-.1 5v17.4zm-43.4 21.3h-.4c-1.5 0-1.8 2.2-2.1 3.3-.4 1.5-.9 2.9-1.8 4.2-1.5 2.2-3.8 3.5-6.3 4.1-2.7.7-5.5.8-8.3.8-2.7 0-5.5 0-8.1-.5-1.8-.4-3.6-1.3-4.6-3-1.2-2-1.3-4.4-1.3-6.7-.1-2.9 0-5.8 0-8.8V539c4.1 0 9.4-.2 12.4 3.2 1.1 1.2 1.7 2.7 2.1 4.3.3 1 .4 2.8 1.4 3.3 1.5.8 2.2-1.3 2.2-2.3.1-3.1-.5-6.3-.5-9.4-.1-3.3 0-6.5.3-9.7.1-1.4.4-3.2-.1-4.5-.4-1.2-1.7-1.6-2.6-.6-.6.7-.7 1.8-.9 2.7-.2 1.2-.5 2.5-1 3.6-2.2 4.7-7.8 5.2-12.4 5.5-.3 0-.6 0-.9.1-.1-4.6 0-9.3 0-13.9 0-2.3-.1-4.6 0-6.9 0-1.4-.3-4 1.3-4.5 1.9-.5 4.2-.2 6.2-.2s4 0 6 .2c3.2.2 6.7.6 9.2 2.8 1.5 1.2 2.3 2.9 2.7 4.7.3 1.3.6 4.8 2.9 3.8 1.9-.8.7-4.1.6-5.6-.2-2.4.3-4.7.2-7 0-1.9-1.2-2.6-3-2.8-2.1-.2-4.3-.2-6.4-.2-4.7 0-9.5.1-14.2.2-4.8.1-9.6.1-14.3.1-2.3 0-4.7-.1-7-.3-1.3-.1-4.4-.6-4.6 1.4-.2 1.7 1.7 2.2 3 2.4 1.5.2 2.9.2 4.2 1 2.2 1.5 2.1 4.5 2.1 6.8v42.6c0 2.1.2 5.1-1.7 6.6-1.8 1.5-4.2.9-6.3 1.8-1.2.5-1.8 2.4-.6 3.3 1.3 1 3.5.3 5 .2 1.8-.1 3.6-.2 5.3-.2 3.5-.1 7 0 10.4 0 5.4 0 10.8.1 16.3.2 3.3.1 6.5.1 9.8.2 1.7 0 4.9.6 6.2-.5.7-.6.6-1.8.7-2.6 0-1.8.1-3.6.2-5.3 0-1.8 1.1-8.1-1.3-8.7m-72.8-49.2c-1.2-.4-2.7 0-3.9.1-1.5.1-3 .2-4.6.2-2.6.1-5.2-.1-7.8-.3-1.3-.1-3.2-.6-4.3.3-.9.7-.8 2.1.1 2.7 1.1.7 2.7.6 3.9.9 2.8.6 3.5 2.8 2.9 5.4-.6 2.7-1.5 5.3-2.5 7.9-.9 2.2-1.7 4.5-2.6 6.7-1.2 2.9-2.3 5.8-3.5 8.8l-3.6 9c-1 2.4-1.9 4.8-2.9 7.3-.3.8-.7 1.6-1 2.4-.1.3-.3 1.2-.5 1.3 0 0 0 .1-.1.2-.4-1.2-.9-2.4-1.3-3.5-1-2.9-2.1-5.7-3.1-8.6-1.2-3.4-2.5-6.9-3.7-10.3l-3.3-9c-.5-1.5-1.1-3-1.6-4.5-.7-2-1.5-4.2-2.1-6.2-.6-1.7-1.5-4.2 0-5.8 1.3-1.4 3.3-.9 5-1.3 1.6-.3 2.7-2.6.9-3.5-.7-.4-1.7-.2-2.5-.2-1.2.1-2.3.2-3.5.2-2.4.1-4.8.2-7.2.2-2.4 0-4.7 0-7.1-.1-1.9-.1-4-.6-5.9-.4-1.4.1-2.6 1.1-1.8 2.6.7 1.5 3.3 1.4 4.7 1.7 3.8.8 4.9 4.8 6.1 8.1 3.3 8.9 6.7 17.7 10.1 26.5 1.7 4.4 3.4 8.9 5.1 13.4.8 2.2 1.7 4.4 2.5 6.6.8 2 1.4 4.2 2.4 6.1.8 1.6 2.3 3.5 4.2 2.1 1.2-.9 2-2.5 2.6-3.9 1.1-2.3 2.1-4.7 3-7.1.6-1.4 1.1-2.7 1.6-4.1l3.9-9.6c1.5-3.9 3.1-7.7 4.7-11.6 1.4-3.4 2.7-6.7 4-10.1.7-1.7 1.3-3.3 2-5.1 1.1-2.5 2.1-5.2 3.6-7.6.7-1.1 1.5-2.2 2.6-3 1.2-.8 2.5-.9 3.9-1.3 1.5-.4 2.8-2.6.8-3.4 0-.2-.1-.2-.2-.2m279.3 62.7c-.3-.2-.6-.3-.9-.4-1.6-.4-3.3-.4-4.9-.9-3.4-1.1-3.6-4.4-3.6-7.4V516.9c0-1.7 0-3.7.8-5.3 1.1-2.1 3.5-2.2 5.6-2.5 1.2-.2 4.8-.7 3.6-2.7-1.1-1.8-5-.9-6.6-.8-5.4.2-10.7.3-16.1.1-1.4-.1-2.7-.1-4.1-.2-1.1-.1-2.4-.2-3.5.3-.9.4-1.5 1.5-.9 2.4.5.7 1.5.8 2.3.9 2 .2 4.3.2 6 1.5 1.5 1.1 1.7 3.2 1.8 5v44.1c0 2.9-.1 6.1-3.3 7.3-1.5.6-3.1.6-4.7.9-.9.1-1.6.5-2 1.3-1.4 3.1 3.4 2.6 5 2.5 1.9-.1 3.7-.2 5.6-.2 3.7-.1 7.4-.1 11.1 0 1.8.1 3.6.1 5.3.3 1.3.1 3.1.3 4.1-.9.7-1.1.2-2-.6-2.6m-435.6 1.4c.6.8 1.3 1.5 2 2.3 1.1 1.2 3.7 1.5 4.4-.4.2-.6.2-1.3.2-2v-51.5c0-2.4.1-4 .5-5.3.4-1.3 1.4-2.3 2.6-2.9 0 0 1.6-.6 1.7-.6 1.1-.2 3.6-.4 4-1.8.2-.6 0-1.2-.4-1.7-.2-.3-.5-.4-.9-.5-.5-.1-1.1-.1-1.7-.1-.6 0-1.2.1-1.8.1-1.7.1-3.4.2-5.2.2-2.1 0-4.2-.1-6.3-.3-.8-.1-1.6-.1-2.4-.2-.8 0-1.6-.1-2.3.2-1.2.4-1.7 2.3-.5 3.1 1.1.7 2.6.4 3.8.7 1.1.3 2.2.9 2.9 1.8 1.3 1.6 1.6 3.9 1.6 7V555l-38.3-47.9c-1.1-1.3-2.1-1.8-3.8-1.9-1.6 0-3.5.2-5.5.2-1.6 0-3.2-.2-4.7-.3-1-.1-2.1-.1-3.1-.1-1 .1-1.9.5-2.1 1.5-.4 1.5.8 2.1 2.1 2.3 1.4.2 2.7.4 4 1 1.5.8 2.7 1.9 3.6 3.3l.2.3V558c0 2.6-.1 4.3-.5 5.7-.4 1.4-1.3 2.4-2.6 3.1l-1.6.6h-.1l-1.7.3c-1.3.3-3.2 1.2-2.2 2.8.9 1.5 3.7 1.1 5.2 1 1.8-.1 3.5-.2 5.3-.2 2.1 0 4.1.1 6.1.2 1.1.1 2.3.3 3.4 0 2-.4 2.8-3 .5-3.6-1.3-.4-2.6-.4-3.8-1-1.4-.7-2.5-1.7-3.1-3.2-.5-1.5-.6-3.2-.6-5.6v-39.5l41.1 51.1zm-76.4-63.3c-.5-1.2-2.9-1-4-1-4.7.3-9.3.3-14 0-1.5-.1-5-.3-4.2 2.3.5 1.7 3 1.3 4.4 1.6 1.4.3 2.8.7 3.7 1.9 1.1 1.6 1.1 3.9 1.1 5.7v29.7c0 8.4-2.4 17.1-11.2 20.1-7.4 2.5-19 2.3-23.5-5.2-2.6-4.5-2.4-9.8-2.4-14.7v-29.9c0-2.3 0-5.4 2.2-6.8 1.7-1 6.7-.2 7-2.9.3-3-6.4-1.7-8.1-1.6-3.6.1-7.2.1-10.8.1-2.3 0-4.5-.1-6.8-.3-1.5-.1-4.6-.2-4 2.2.5 1.9 3.6 1.5 5.1 1.9 2.4.6 3.7 2.1 4 4.6.2 1.9.1 3.9.1 5.8v28.8c0 1.9-.1 3.7.1 5.6.4 5.1 2.2 10.1 6.2 13.5 7.8 6.6 20.4 6.5 29.7 4.2 6.6-1.7 11.7-5.7 14.1-12.2 2-5.5 2.2-11.4 2.2-17.1v-25.8c0-1.8-.1-4.1 1-5.7 1.1-1.6 2.8-1.7 4.5-1.9 1.2-.2 3.4-.4 3.7-1.9 0-.4 0-.7-.1-1m145.4 61.9c-.3-.2-.6-.3-.9-.4-1.6-.4-3.3-.4-4.9-.9-3.4-1.1-3.6-4.4-3.6-7.4V516.9c0-1.7 0-3.7.8-5.3 1.1-2.1 3.5-2.2 5.6-2.5 1.2-.2 4.8-.7 3.6-2.7-1.1-1.8-5-.9-6.6-.8-5.4.2-10.7.3-16.1.1-1.4-.1-2.7-.1-4.1-.2-1.1-.1-2.4-.2-3.5.3-.9.4-1.5 1.5-.9 2.4.5.7 1.5.8 2.3.9 2 .2 4.3.2 6 1.5 1.5 1.1 1.7 3.2 1.8 5v44.1c0 2.9-.2 6.1-3.3 7.3-1.5.6-3.1.6-4.7.9-.9.1-1.6.5-2 1.3-1.4 3.1 3.4 2.6 5 2.5 1.9-.1 3.7-.2 5.6-.2 3.7-.1 7.4-.1 11.1 0 1.8.1 3.6.1 5.3.3 1.3.1 3.1.3 4.1-.9.6-1.1.2-2-.6-2.6m695.8 1.3V30.4c0-2.5-2-4.5-4.5-4.5s-4.5 2-4.5 4.5v539.2c0 2.5 2 4.5 4.5 4.5s4.5-2 4.5-4.5m273-19.1h-41.9c2.1 6.5 7.8 10.8 14.4 10.8 5.9 0 11.9-3.1 14.6-7.7l9.8 6.4c-5.2 7.6-14.2 12.7-24.4 12.7-15.8 0-28.7-12.1-28.7-28.1s12.9-28.1 28.7-28.1c15.5 0 28.2 12.4 28.2 28.1.1 2-.2 3.9-.7 5.9zm-13-11.3c-1.5-6.9-7.5-11.5-14.4-11.5-6.8 0-12.9 4.6-14.4 11.5h28.8zm65.2 24.1h-.2c-3.6 5-9.3 9.4-17.5 9.4-15.7 0-26.4-12-26.4-28.1 0-16 10.7-28.1 26.4-28.1 8.3 0 13.9 4.3 17.5 9.3h.2v-7.7h12.9v53.1h-12.9v-7.9zm-15.4-34.9c-9 0-15.4 7.6-15.4 16.1 0 8.6 6.4 16.2 15.4 16.2 9.1 0 15.4-7.6 15.4-16.2 0-8.5-6.3-16.1-15.4-16.1zm71.6-10.6-4.1 11.8c-1.3-.5-2.5-.9-3.9-.9-7.4 0-13.4 6.4-13.4 14v28.4h-12.9V518h12v7.3c2.7-4.7 7.2-8.9 14.3-8.9 2.8.1 5.5.6 8 1.4zm34.3 38.2c0-3.8-1.8-5-12.6-6.5-11.8-1.6-18.1-6.4-18.1-16.8 0-10.3 8.5-16.3 21.2-16.3 8 0 15.4 2.4 21 6.2l-5.6 9.8c-3.5-2.8-9.7-4.5-15.4-4.5s-8.1 2-8.1 4.8c0 3.3 1.5 4.4 10.6 5.5 13.6 1.9 20.3 6.7 20.3 17.8 0 10.9-10.4 16.7-22.8 16.7-8.6 0-16.4-2.4-22.3-6.2l6.3-10.4c3.8 2.8 9.6 4.7 16 5 5.8.4 9.5-1.8 9.5-5.1zm-207.5-52.4-14.8 25h-.4l-15-25h-15.3l24.1 38.7v28.8h12.9v-28.8l23.7-38.7zm652.6-416.1c-6 7-11.3 14.6-15.9 22.6-4.6 8-8.5 16.4-11.8 25.1-3.3 8.7-6 17.6-8 26.7-2.1 9.1-3.5 18.3-4.5 27.6l-.6 7c-.2 2.3-.3 4.7-.4 7l-.2 3.5-.1 3.5-.2 7c.2 9.3.6 18.7 1.6 28s2.4 18.5 4.5 27.6c2.1 9.1 4.7 18 8 26.7s7.2 17.1 11.8 25.2c9.1 16.1 21.3 30.5 36.4 41.2 6.1 4.3 12.7 8 19.6 10.9-1.9-1-3.8-2.1-5.6-3.3-1.9-1.2-3.7-2.5-5.5-3.8-.9-.6-1.8-1.4-2.6-2.1-.9-.7-1.7-1.4-2.6-2.2-6.7-6-12.6-12.9-17.7-20.2-5.1-7.4-9.4-15.3-13.1-23.5-7.3-16.4-12-33.8-15-51.3-.8-4.4-1.4-8.8-2-13.2-.3-2.2-.5-4.4-.7-6.6l-.3-3.3-.2-3.3-.5-6.7-.3-6.7-.1-3.3-.1-3.3-.1-6.7c.3-17.8 1.7-35.6 4.6-53.1 2.9-17.6 7.4-35 14.5-51.4 3.6-8.2 7.8-16.2 12.9-23.6 5.1-7.4 10.9-14.3 17.7-20.3.8-.8 1.7-1.4 2.6-2.2.9-.7 1.7-1.5 2.6-2.1 1.8-1.3 3.6-2.7 5.6-3.8.7-.4 1.3-.8 2-1.2-5.5 2.6-10.8 5.7-15.8 9.3l-2.8 2.1c-.5.3-.9.7-1.4 1l-1.3 1.1-2.7 2.2c-.9.7-1.7 1.6-2.6 2.3-.8.8-1.7 1.5-2.5 2.3l-2.4 2.5c-1.8 1.3-3.2 3.1-4.8 4.8z"/>
    <path d="M2335.1 319.9c3.5-8 6.4-16.3 8.9-24.7 2.5-8.4 4.4-17 5.9-25.6.8-4.3 1.4-8.7 2-13l.8-6.6.4-3.3.3-3.3c.8-8.8 1.1-17.6 1.4-26.4l-.1-6.6-.1-3.3-.1-3.3-.3-6.6-.5-6.6-.2-3.3-.3-3.3c-.2-2.2-.4-4.4-.7-6.6-.6-4.4-1.2-8.7-2-13-.4-2.2-.7-4.3-1.2-6.5-.5-2.1-.9-4.3-1.4-6.4l-1.6-6.4-1.8-6.3c-2.5-8.4-5.5-16.7-9-24.7s-7.6-15.7-12.4-23c-4.8-7.3-10.3-14.1-16.6-20.1-6.4-5.9-13.5-11.1-21.4-14.7l-3-1.3c-1-.4-2-.8-3.1-1.1l-1.5-.6-1.6-.5c-.9-.3-1.8-.5-2.8-.8-4.5-.8-9-1.3-13.6-1.7-3.8.3-7.6.8-11.3 1.4l-1.5.3c-1.1.3-2.1.6-3.1.9-.5.2-1 .3-1.6.5l-1.5.6c-1 .4-2.1.7-3.1 1.2l-3 1.3c-7.9 3.7-15 8.9-21.3 14.9-6.2 6-11.7 12.8-16.4 20.1-4.7 7.3-8.8 15-12.2 23-3.5 8-6.4 16.2-8.9 24.6l-1.8 6.3-1.6 6.4c-.9 4.3-1.8 8.6-2.5 12.9-.8 4.3-1.4 8.7-1.9 13l-.7 6.6-.3 3.3-.2 3.3c-.7 8.8-.9 17.6-1 26.3.2 8.8.5 17.6 1.3 26.3l.3 3.3.4 3.3c.2 2.2.5 4.4.7 6.5.6 4.3 1.1 8.7 1.9 13 1.5 8.6 3.3 17.2 5.7 25.6 2.4 8.4 5.2 16.7 8.6 24.7 3.4 8 7.4 15.8 12.2 23.1 4.7 7.3 10.2 14.1 16.5 20.2 6.3 5.9 13.5 11.1 21.4 14.8l3 1.3c1 .4 2 .8 3.1 1.1l1.5.6c.5.2 1 .3 1.6.5.9.2 1.8.5 2.7.8 4.4.8 8.9 1.3 13.5 1.7 4.1-.3 8.2-.8 12.2-1.5.3-.1.6-.1.8-.2 1.1-.3 2.1-.6 3.2-.9.5-.2 1-.3 1.6-.5l1.5-.6c1-.4 2.1-.7 3.1-1.2l3-1.3c7.9-3.7 15-8.9 21.3-14.9 12.2-11.9 21.5-27 28.4-43zm-75.8 48.6c-50.7 0-76.4-50.7-76.4-150.7 0-99.9 25.7-150.6 76.4-150.6 51.3 0 77.4 50.7 77.4 150.6 0 100-26.1 150.7-77.4 150.7z"/>
    <path d="M2348 324.5c4.6-8 8.5-16.4 11.9-25.1 3.3-8.7 6-17.6 8.1-26.7 2.1-9.1 3.6-18.3 4.7-27.6s1.6-18.7 1.9-28l-.1-7c0-1.2 0-2.3-.1-3.5l-.2-3.5c-.1-2.3-.2-4.7-.4-7l-.6-7c-1-9.3-2.4-18.6-4.5-27.7-2.1-9.1-4.9-18.1-8.3-26.7-3.4-8.7-7.5-17.1-12.2-25.1-4.7-8-10.1-15.6-16.2-22.5-1.5-1.7-3.1-3.5-4.7-5.1l-2.4-2.5-2.6-2.3c-3.4-3.1-7.1-6-10.8-8.7-5.2-3.7-10.8-6.8-16.7-9.5 1 .6 1.9 1.1 2.8 1.7 3.8 2.4 7.4 5.1 10.8 8.1 6.7 6 12.6 12.9 17.7 20.3s9.4 15.3 13 23.5c7.1 16.5 11.6 33.9 14.5 51.4 3 17.6 4.4 35.3 4.6 53.1-.1 8.9-.3 17.8-1.1 26.7l-.2 3.3-.3 3.3-.7 6.6c-.6 4.4-1.1 8.8-1.9 13.2-2.8 17.6-7.5 35-14.6 51.5-3.6 8.2-7.9 16.2-13 23.6-5.1 7.4-11 14.3-17.7 20.3-.8.8-1.7 1.4-2.6 2.2-.9.7-1.7 1.5-2.6 2.1-1.8 1.3-3.6 2.7-5.6 3.8-.6.4-1.1.7-1.7 1.1 5.4-2.6 10.6-5.6 15.4-9.1 15-10.7 27.2-25.1 36.4-41.2zM2183.4 351c-6.6-7.1-12.2-14.9-17.1-23.2-4.8-8.3-8.8-17.1-12.1-26-3.3-9-5.9-18.2-8-27.5-2-9.3-3.5-18.8-4.5-28.2-1-9.5-1.4-19-1.6-28.5l.2-7.1.1-3.6.2-3.6c.2-2.4.2-4.8.4-7.1l.7-7.1.2-1.8.2-1.8.5-3.5.5-3.5c.2-1.2.4-2.4.6-3.5.4-2.3.7-4.7 1.2-7.1l1.4-7c2.1-9.3 4.6-18.5 7.8-27.6 3.2-9 7.2-17.8 12-26.2 7.3-12.7 16.7-24.3 27.9-33.7-.1 0-.1.1-.2.1l-3 2.1c-4 2.8-7.7 5.9-11.3 9.2-1.8 1.6-3.5 3.4-5.3 5.1-1.7 1.7-3.3 3.5-5 5.3l-4.7 5.6c-1.5 1.9-3 3.8-4.4 5.8-5.8 7.8-10.8 16.3-15.1 25-4.3 8.8-7.8 18-10.5 27.5s-4.8 19.1-6.3 28.9c-1.3 9.8-2.2 19.7-2.6 29.6 0 9.9.4 19.9 1.6 29.7 1.2 9.9 3.2 19.6 6 29.2 5.5 19.1 14.8 36.9 26.6 52.5 1.5 1.9 3.1 3.8 4.6 5.7l4.8 5.5c1.7 1.7 3.4 3.5 5.1 5.3 1.8 1.6 3.5 3.4 5.3 5 3.7 3.2 7.5 6.3 11.5 9.1l3 2.1c1 .7 2.1 1.3 3.1 2 .4.2.8.5 1.1.7-5.6-4.1-10.4-8.6-14.9-13.4z"/>
    <path d="M2392.9 187.3c-1.2-9.9-3.2-19.7-6-29.2-1.4-4.8-3.1-9.5-4.9-14.1-1-2.3-1.9-4.6-3-6.8l-3.3-6.7c-4.6-8.8-9.9-17.1-15.9-24.8-1.5-1.9-3.1-3.8-4.6-5.7l-4.9-5.5c-1.7-1.7-3.4-3.5-5.1-5.2-1.8-1.6-3.5-3.4-5.4-5-3.7-3.2-7.5-6.3-11.5-9.1l-3-2.1c-.8-.6-1.7-1.1-2.5-1.6.9.7 1.8 1.4 2.6 2.2l2.7 2.4 2.6 2.5c1.8 1.6 3.4 3.4 5.1 5.2 6.6 7.1 12.2 14.9 17 23.3 4.8 8.4 8.7 17.1 11.9 26.1 3.2 9 5.7 18.2 7.8 27.5 2 9.3 3.5 18.7 4.6 28.2 1 9.5 1.6 18.9 1.9 28.5l-.1 7.1-.1 3.6-.2 3.6c-.1 2.4-.2 4.8-.4 7.1l-.6 7.1c-1 9.5-2.3 18.9-4.3 28.3-2 9.3-4.6 18.6-7.9 27.6-3.3 9-7.3 17.8-12.1 26.1-4.9 8.3-10.5 16.2-17.1 23.3-1.7 1.7-3.3 3.5-5.1 5.2l-2.6 2.5c-.9.8-1.8 1.5-2.7 2.3l2.6-1.9c4-2.8 7.8-5.9 11.4-9.2 1.8-1.6 3.5-3.4 5.3-5.1 1.7-1.7 3.4-3.5 5-5.3l4.7-5.6c1.5-1.9 3-3.8 4.5-5.8 5.8-7.8 10.8-16.3 15.2-25 4.4-8.8 7.8-18 10.6-27.5s4.9-19.1 6.4-28.9c1.4-9.8 2.4-19.7 2.8-29.6-.1-5 0-9.9-.3-14.9 0-5.2-.6-10.2-1.1-15.1z"/>
    <path d="M2371 93.7C2341.9 61 2302.2 43 2259.3 43c-42.7 0-82.1 18-111 50.7-28.7 32.4-44.5 76.5-44.5 124.1 0 47.6 15.9 91.7 44.7 124.1 29 32.7 68.4 50.7 110.8 50.7 42.7 0 82.3-18 111.5-50.6 29-32.5 45-76.5 45-124.2 0-47.6-16-91.7-44.8-124.1zm22.3 184.3c-5.3 19.9-13.7 39.2-26.3 55.9-6.2 8.3-13.4 16-21.5 22.6-4 3.3-8.2 6.4-12.6 9.2l-3.3 2.1c-1.1.7-2.3 1.3-3.4 1.9-1.1.6-2.3 1.3-3.4 1.9l-3.5 1.7c-9.3 4.5-19.2 7.9-29.3 9.8-10.1 2-20.4 2.7-30.5 1.9-10.1.7-20.4.1-30.4-1.9-10.1-1.9-19.9-5.3-29.2-9.9l-3.5-1.7c-1.1-.6-2.3-1.3-3.4-1.9-1.1-.6-2.3-1.3-3.4-1.9l-3.3-2.1c-4.3-2.8-8.5-6-12.5-9.3-8-6.6-15-14.3-21.1-22.7-6.1-8.4-11.1-17.4-15.3-26.8l-3-7.1-2.6-7.2c-.8-2.4-1.6-4.9-2.4-7.3l-.6-1.8-.5-1.8-1-3.7c-2.7-9.8-4.7-19.8-6.2-29.9-1.3-10.1-2.3-20.2-2.6-30.4 0-10.2.3-20.4 1.5-30.6 1.2-10.2 3.1-20.3 5.7-30.2 5.2-19.8 13.6-39.2 26.1-55.9 6.2-8.3 13.4-16 21.4-22.6 4-3.3 8.2-6.4 12.5-9.2l3.3-2.1c1.1-.7 2.3-1.3 3.4-1.9 1.1-.6 2.2-1.3 3.4-1.9l3.5-1.7c9.3-4.5 19.1-7.9 29.2-9.8 10.1-2 20.3-2.7 30.4-2 10.1-.8 20.4-.1 30.5 1.9 10.1 1.9 19.9 5.3 29.2 9.8l3.5 1.7c1.2.6 2.3 1.3 3.4 1.9 1.1.6 2.3 1.3 3.4 1.9l3.3 2.1c4.4 2.8 8.5 6 12.5 9.3 8 6.6 15.1 14.3 21.2 22.7 6.1 8.4 11.1 17.5 15.3 26.9l2.9 7.1c.9 2.4 1.7 4.8 2.6 7.2 1.6 4.8 3.2 9.7 4.5 14.6 2.7 9.8 4.7 19.8 6.2 29.9 1.4 10.1 2.4 20.2 2.8 30.5.1 10.2-.3 20.4-1.4 30.6-1 10.1-2.9 20.2-5.5 30.2zM2005.4 324.5c9.3-16 15.7-33.7 20-51.8 2.1-9.1 3.6-18.3 4.7-27.6s1.6-18.7 1.9-28l-.1-7c0-1.2 0-2.3-.1-3.5l-.2-3.5c-.1-2.3-.2-4.7-.4-7l-.6-7c-1-9.3-2.4-18.6-4.5-27.7-2.1-9.1-4.9-18.1-8.3-26.7-3.4-8.7-7.5-17.1-12.2-25.1-4.7-8-10.1-15.6-16.2-22.5-1.5-1.7-3.1-3.5-4.7-5.1l-2.4-2.5-2.6-2.3c-3.4-3.1-7.1-6-10.8-8.7-5.3-3.7-10.9-6.9-16.8-9.6l3 1.8c3.8 2.4 7.4 5.1 10.8 8.1 6.7 6 12.6 12.9 17.7 20.3s9.3 15.4 13 23.5c7.1 16.4 11.7 33.8 14.6 51.4 3 17.6 4.4 35.3 4.6 53.1-.1 8.9-.3 17.8-1.1 26.7l-.2 3.3-.3 3.3-.7 6.6c-.6 4.4-1.1 8.8-1.9 13.2-2.9 17.6-7.4 35-14.6 51.5-3.6 8.2-7.9 16.2-13 23.6-5.1 7.4-11 14.3-17.7 20.3-.8.8-1.7 1.4-2.6 2.2-.9.7-1.7 1.5-2.6 2.1-1.8 1.3-3.6 2.7-5.6 3.8-.6.4-1.1.7-1.7 1.1 5.4-2.6 10.6-5.6 15.4-9.1 14.8-10.7 27-25.1 36.2-41.2zm-160.8-237c-6 7-11.3 14.6-15.9 22.6-4.6 8-8.5 16.4-11.8 25.1-3.3 8.7-6 17.6-8 26.7-2.1 9.1-3.5 18.3-4.5 27.6l-.7 7c-.2 2.3-.3 4.7-.4 7l-.2 3.5-.1 3.5-.2 7c.2 9.3.6 18.7 1.6 28s2.4 18.5 4.5 27.6c2.1 9.1 4.7 18 8 26.7s7.2 17.1 11.8 25.1c9.1 16.1 21.3 30.5 36.4 41.2 5.9 4.2 12.3 7.8 19 10.6-1.7-.9-3.4-1.9-5.1-3-1.9-1.2-3.7-2.5-5.5-3.8-.9-.6-1.8-1.4-2.6-2.1-.9-.7-1.7-1.4-2.6-2.2-6.7-6-12.6-12.9-17.6-20.3-5.1-7.4-9.3-15.3-13-23.5-7.1-16.4-11.7-33.8-14.6-51.4-3-17.6-4.3-35.3-4.5-53.1.1-8.9.4-17.8 1.2-26.6l.3-3.3.3-3.3.7-6.6c.6-4.4 1.1-8.8 1.9-13.2 2.9-17.6 7.4-35 14.5-51.4 3.6-8.2 7.8-16.2 12.9-23.6 5.1-7.4 10.9-14.3 17.7-20.3.8-.8 1.7-1.4 2.6-2.2.9-.7 1.7-1.5 2.6-2.1 1.8-1.3 3.6-2.7 5.6-3.8.7-.4 1.3-.8 2-1.2-5.5 2.6-10.8 5.7-15.8 9.3l-2.8 2.1c-.5.3-.9.7-1.4 1l-1.3 1.1-2.7 2.2c-.9.7-1.7 1.6-2.6 2.3-.8.8-1.7 1.5-2.5 2.3l-2.4 2.5c-1.8 1.5-3.2 3.3-4.8 5z"/>
    <path d="M1992.5 319.9c3.5-8 6.4-16.3 8.9-24.7l1.8-6.3 1.6-6.4c.9-4.3 1.9-8.6 2.6-12.9.8-4.3 1.4-8.7 2-13l.7-6.6.4-3.3.3-3.3c.8-8.8 1.1-17.6 1.3-26.4l-.1-6.6-.1-3.3-.2-3.3-.3-6.6-.5-6.6-.3-3.3-.3-3.3c-.2-2.2-.4-4.4-.7-6.6-.6-4.4-1.2-8.7-2-13-.4-2.2-.7-4.3-1.2-6.5-.5-2.1-.9-4.3-1.4-6.4l-1.6-6.4-1.8-6.3c-2.5-8.4-5.4-16.7-9-24.7-7-16-16.4-31.1-29-43.1-6.4-5.9-13.5-11.1-21.4-14.7l-3-1.3c-1-.4-2-.8-3.1-1.1l-1.5-.6-1.6-.3c-.9-.2-1.8-.5-2.6-.7-4.5-.8-9.1-1.4-13.7-1.7-3.8.3-7.6.8-11.3 1.4l-1.5.3c-1.1.3-2.1.6-3.1.9-.5.2-1 .3-1.6.5l-1.5.6c-1 .4-2.1.7-3.1 1.2l-3 1.3c-7.9 3.7-15 8.9-21.3 14.9-12.5 12.1-21.8 27.2-28.7 43.2-3.5 8-6.4 16.3-8.8 24.7l-1.8 6.3-1.6 6.4c-.9 4.3-1.9 8.6-2.6 12.9-.8 4.3-1.4 8.7-2 13l-.7 6.5-.3 3.3-.3 3.3c-.8 8.8-1 17.6-1.2 26.3l.1 6.6.1 3.3.2 3.3.3 6.6.5 6.6.3 3.3.3 3.3c.2 2.2.4 4.4.7 6.5.6 4.3 1.2 8.7 2 13 .4 2.2.7 4.3 1.2 6.5.5 2.1.9 4.3 1.4 6.4l1.6 6.4c.5 2.1 1.2 4.2 1.7 6.3 2.4 8.4 5.3 16.7 8.8 24.7 3.4 8 7.5 15.8 12.3 23.1 4.7 7.3 10.2 14.1 16.5 20.1 6.3 5.9 13.5 11.1 21.4 14.8l3 1.3c1 .4 2 .8 3.1 1.1l1.5.6c.5.2 1 .3 1.6.5 1 .3 2.1.6 3.1.9 4.3.7 8.7 1.3 13.1 1.6 4.1-.3 8.2-.8 12.2-1.5.3-.1.6-.1.8-.2 1.1-.3 2.1-.6 3.2-.9.5-.2 1-.3 1.6-.5l1.5-.6c1-.4 2.1-.7 3.1-1.2l3-1.3c7.9-3.7 15-8.9 21.3-14.9 12.5-12.3 21.8-27.4 28.7-43.4zm-75.8 48.6c-50.7 0-76.4-50.7-76.4-150.7 0-99.9 25.7-150.6 76.4-150.6 51.3 0 77.4 50.7 77.4 150.6 0 100-26.1 150.7-77.4 150.7z"/>
    <path d="M1840.8 351c-6.5-7.1-12.2-14.9-17.1-23.2-4.8-8.3-8.8-17.1-12.1-26.1-3.3-9-5.9-18.2-8-27.5-2-9.3-3.5-18.8-4.5-28.2-1-9.5-1.5-19-1.7-28.5l.2-7.1.1-3.6.2-3.6c.1-2.4.2-4.8.4-7.1l.7-7.1c1-9.5 2.4-18.9 4.4-28.2 2-9.3 4.6-18.6 7.8-27.6s7.2-17.8 12-26.2c7.3-12.7 16.7-24.3 27.9-33.7-.1 0-.1.1-.2.1l-3 2.1c-4 2.8-7.7 5.9-11.4 9.2-1.8 1.6-3.5 3.4-5.3 5.1-1.7 1.7-3.3 3.5-5 5.3l-4.7 5.6c-1.5 1.9-3 3.8-4.4 5.8-5.8 7.8-10.8 16.3-15.1 25-4.3 8.8-7.8 18-10.5 27.5s-4.8 19.1-6.3 28.9c-1.3 9.8-2.2 19.7-2.6 29.6 0 9.9.4 19.9 1.6 29.7 1.2 9.9 3.2 19.6 6 29.2 5.5 19.1 14.7 36.9 26.6 52.5 1.5 1.9 3.1 3.8 4.6 5.7l4.8 5.5c1.7 1.7 3.4 3.5 5.1 5.3 1.8 1.6 3.5 3.4 5.3 5 3.7 3.2 7.4 6.3 11.5 9.1l3 2.1c1 .7 2.1 1.3 3.1 2 .4.2.8.5 1.1.7-5.2-4-10-8.5-14.5-13.3zm209.6-163.7c-1.2-9.9-3.2-19.7-6-29.3-5.6-19.1-15-36.9-27-52.4-1.5-1.9-3.1-3.8-4.6-5.7l-4.9-5.5c-1.7-1.7-3.4-3.5-5.1-5.2-1.8-1.6-3.5-3.4-5.4-5-3.7-3.2-7.5-6.3-11.5-9.1l-3-2.1c-.8-.5-1.7-1.1-2.5-1.6.9.7 1.7 1.4 2.6 2.2l2.7 2.4 2.6 2.5c1.8 1.6 3.4 3.4 5.1 5.2 6.6 7.1 12.2 14.9 17 23.3 4.7 8.4 8.7 17.1 11.9 26.1 3.2 9 5.7 18.2 7.8 27.5l1.4 7c.5 2.3.8 4.7 1.2 7l.6 3.5.5 3.5c.3 2.4.7 4.7.9 7.1 1 9.5 1.6 18.9 1.9 28.5l-.1 7.1-.1 3.6-.2 3.6c-.1 2.4-.2 4.8-.4 7.1l-.6 7.1c-1 9.5-2.3 18.9-4.3 28.3-4.1 18.7-10.3 37-20 53.7-4.9 8.3-10.5 16.2-17.1 23.3-1.7 1.7-3.3 3.5-5.1 5.2l-2.6 2.5c-.9.8-1.8 1.5-2.7 2.3l2.6-1.9c4-2.8 7.8-5.9 11.4-9.2 1.8-1.6 3.5-3.4 5.3-5.1 1.7-1.7 3.4-3.5 5-5.3l4.7-5.6c1.5-1.9 3-3.8 4.5-5.8 5.8-7.8 10.8-16.3 15.2-25 4.3-8.8 7.8-18 10.6-27.5s4.9-19.1 6.4-28.9c1.4-9.8 2.4-19.7 2.8-29.7-.1-5 0-9.9-.3-14.9-.2-4.9-.7-9.9-1.2-14.8z"/>
    <path d="M2028.4 93.7C1999.3 61 1959.6 43 1916.7 43c-42.7 0-82.1 18-111 50.7-28.7 32.4-44.5 76.5-44.5 124.1 0 47.6 15.9 91.7 44.7 124.1 29 32.7 68.4 50.7 110.8 50.7 42.7 0 82.3-18 111.5-50.6 29-32.5 45-76.5 45-124.2 0-47.6-15.9-91.7-44.8-124.1zm22.3 184.3c-5.3 19.9-13.7 39.2-26.3 55.9-6.2 8.3-13.4 16-21.5 22.6-4 3.3-8.2 6.4-12.6 9.2l-3.3 2.1c-1.1.7-2.3 1.3-3.4 1.9-1.1.6-2.3 1.3-3.4 1.9l-3.5 1.7c-9.3 4.5-19.2 7.9-29.3 9.8-10.1 2-20.4 2.7-30.5 1.9-10.1.7-20.4.1-30.4-1.9-10.1-1.9-19.9-5.3-29.2-9.9l-3.5-1.7c-1.1-.6-2.3-1.3-3.4-1.9-1.1-.6-2.3-1.3-3.4-1.9l-3.3-2.1c-4.3-2.8-8.5-6-12.5-9.3-8-6.6-15-14.3-21.1-22.7-6.1-8.4-11.1-17.4-15.3-26.8l-3-7.1-2.6-7.2c-.8-2.4-1.6-4.9-2.4-7.3l-.6-1.8-.5-1.8-1-3.7c-2.7-9.8-4.7-19.8-6.2-29.9-1.3-10.1-2.3-20.2-2.6-30.4 0-10.2.4-20.4 1.5-30.6 1.2-10.2 3.1-20.3 5.7-30.2 2.6-9.9 6-19.7 10.3-29.1 4.3-9.4 9.5-18.4 15.7-26.8 6.2-8.3 13.4-16 21.4-22.6 4-3.3 8.2-6.4 12.5-9.2l3.3-2.1c1.1-.7 2.3-1.3 3.4-1.9 1.1-.6 2.2-1.3 3.4-1.9l3.5-1.7c9.3-4.5 19.1-7.9 29.2-9.8 10.1-2 20.3-2.7 30.4-2 10.1-.8 20.4-.1 30.5 1.9 10.1 1.9 19.9 5.3 29.2 9.8l3.5 1.7c1.2.6 2.3 1.3 3.4 1.9 1.1.6 2.3 1.3 3.4 1.9l3.3 2.1c4.4 2.8 8.5 6 12.5 9.3 8 6.6 15.1 14.3 21.1 22.7 6.1 8.4 11.1 17.5 15.2 26.9l2.9 7.1c.9 2.4 1.7 4.8 2.6 7.2 1.6 4.8 3.2 9.7 4.5 14.6 2.7 9.8 4.7 19.8 6.2 29.9 1.4 10.1 2.4 20.2 2.8 30.5.1 10.2-.3 20.4-1.4 30.6-.7 10.1-2.6 20.2-5.2 30.2z"/>
    <g>
      <path d="M1535.3 451.1c10.2-2.5 20.7-4.1 31.2-5 10.5-1 21-1.3 31.5-1.2 10.5.1 21 .5 31.5 1.3s20.9 1.8 31.3 3.1c20.8 2.5 41.5 5.8 62.1 9.5 20.6 3.8 41 8 61.5 12.3l61.2 13.2 30.6 6.6 30.6 6.3c20.4 4.2 40.9 8 61.4 11.7 41 7.3 82.2 13.5 123.6 17 20.7 1.7 41.4 2.8 62.1 2.7 10.4 0 20.7-.3 31-.9 10.3-.6 20.6-1.5 30.8-2.8 20.5-2.5 40.7-6.7 60.2-13.1 19.5-6.4 38.3-15.1 55.2-26.7 8.4-5.8 16.5-12.2 23.9-19.3 7.4-7.1 14.3-14.8 20.4-23.1 4.7-6.3 9-12.9 13-19.7-4.3 6.5-9 12.8-14.2 18.7-13.7 15.7-30.3 28.9-48.5 39.1-18.2 10.2-38 17.5-58.1 22.8-10.1 2.6-20.3 4.7-30.6 6.3-10.3 1.6-20.6 2.9-30.9 3.7-10.4.9-20.7 1.3-31.1 1.6-10.4.2-20.7.2-31.1-.1-20.7-.6-41.4-2.1-61.9-4.1-41.1-4.1-82-10.4-122.6-17.6-20.3-3.6-40.6-7.4-60.8-11.2-20.2-3.9-40.5-7.8-60.7-11.6l-30.4-5.6c-10.1-1.8-20.3-3.6-30.4-5.3-20.3-3.4-40.6-6.7-61-9.5-10.2-1.5-20.4-2.8-30.6-4-10.2-1.2-20.4-2.2-30.6-3.1-20.4-1.7-41-2.6-61.4-1.9-20.4.8-40.9 3-60.5 8.9-4.9 1.5-9.7 3.2-14.4 5.2-4.7 2-9.3 4.2-13.7 6.8-2.3 1.3-4.5 2.7-6.6 4.2 2.4-1.5 4.9-3 7.4-4.3 4.7-2.4 9.5-4.6 14.5-6.3 4.9-1.8 9.9-3.3 15.1-4.6z"/>
      <path d="M1490.7 469.4c3.7-3.6 7.5-7 11.6-10 8.2-6.1 17.2-11.2 26.7-15.3 9.4-4.1 19.2-7.2 29.2-9.7 10-2.5 20.1-4.3 30.2-5.5 20.3-2.6 40.9-3.3 61.3-3 20.5.2 40.9 1.6 61.2 3.4 40.7 3.9 81.1 9.8 121.4 16.2l60.4 9.6c20.1 3.2 40.3 6.4 60.4 9.5 40.3 6.1 80.6 11.8 121.1 16 20.2 2.1 40.5 3.7 60.8 4.7 10.1.5 20.3.9 30.4 1 10.1.2 20.3.1 30.4-.2 20.3-.6 40.5-2.4 60.4-5.6 19.9-3.3 39.7-8.1 58.4-15.6 9.4-3.7 18.5-8 27.3-13 8.7-5 17-10.8 24.8-17.3 10.9-9.1 20.5-19.7 28.7-31.3-2.7 3.1-5.4 6.1-8.3 9-7.3 7.1-15.3 13.6-23.8 19.2s-17.6 10.4-26.9 14.5c-9.3 4.1-18.9 7.6-28.7 10.5-19.5 5.8-39.7 9.4-59.9 11.7-20.2 2.3-40.5 3.2-60.8 3.3-20.3.1-40.6-.6-60.8-1.9-20.2-1.3-40.4-3.2-60.6-5.3-20.1-2.1-40.2-4.7-60.3-7.4-20.1-2.7-40.1-5.7-60.1-8.7l-60-9c-20-3-40-5.9-60-8.5-20-2.6-40.1-5-60.2-7.1-20.1-2-40.2-3.7-60.4-4.8-20.2-1.1-40.3-1.4-60.5-.8-20.1.6-40.3 2.3-60.1 6-19.8 3.7-39.3 9.4-57.2 18.6-4.4 2.4-8.8 4.8-13 7.6l-1.6 1-1.5 1.1-3.1 2.2c-2 1.5-4 3-5.9 4.7-4.2 3.4-8.1 7.2-11.7 11.2.1-.4.4-.7.7-1z"/>
      <path d="M2368.9 437.2c-7.7 6.8-16.1 12.9-24.9 18.3-8.8 5.3-18.1 10-27.6 13.9-19 7.9-39 13.3-59.2 16.9-20.2 3.7-40.7 5.5-61.2 6.4-41 1.7-81.9-.9-122.6-5.1-40.7-4.2-81.1-10.3-121.3-16.9-20.1-3.3-40.2-6.7-60.3-10.1l-30.1-5.1c-10-1.7-20.1-3.3-30.2-4.9-40.2-6.4-80.6-12.3-121-16.2-20.2-2-40.5-3.4-60.8-4-20.3-.6-40.6-.2-60.8 2-20.1 2.2-40.2 6.1-59 13.8-9.4 3.8-18.4 8.5-26.7 14.3-3.5 2.4-6.8 5.1-9.9 7.9 3.4-2.8 7-5.4 10.7-7.8 4.4-2.8 9-5.2 13.7-7.4 4.7-2.2 9.6-4 14.5-5.7 9.9-3.2 20-5.7 30.2-7.3 10.2-1.7 20.6-2.8 30.9-3.4 41.4-2.2 82.8 1.7 123.7 7.3 40.9 5.7 81.4 13.4 122 20.9l30.4 5.7 30.4 5.5c20.3 3.7 40.5 7.2 60.8 10.6 40.6 6.7 81.3 12.6 122.2 16.6 20.4 1.9 40.9 3.3 61.4 3.8s41 .3 61.3-1.3c20.4-1.5 40.6-4.3 60.4-9 19.8-4.7 39.2-11.4 57.1-21 9-4.8 17.6-10.2 25.7-16.3 8.1-6.1 15.7-13 22.6-20.4 6.9-7.5 13.3-15.5 18.9-24 1-1.5 1.9-3 2.9-4.5-1 1.4-2 2.8-3.1 4.2-6.3 7.9-13.3 15.5-21.1 22.3z"/>
      <path d="M2379 445.4c-12 17.4-26.9 32.9-44.1 45.3-8.6 6.2-17.7 11.8-27.1 16.6-9.5 4.8-19.3 8.9-29.3 12.4s-20.2 6.4-30.5 8.7c-10.3 2.3-20.7 4.2-31.2 5.6-10.5 1.4-21 2.3-31.5 2.9-10.5.6-21 .8-31.5.8-21-.1-42-1.3-62.9-3.3-20.9-1.9-41.7-4.6-62.4-7.7-20.7-3.1-41.3-6.7-61.8-10.6-20.5-3.9-41-8.1-61.4-12.3l-61.3-13-30.6-6.5-30.6-6.2c-20.4-4.1-40.9-8.1-61.4-11.8-20.5-3.7-41-7.2-61.6-10-10.3-1.4-20.6-2.6-30.9-3.6-10.3-1-20.7-1.7-31-2.1-20.7-.7-41.5 0-61.8 4-2.5.5-5 1.1-7.6 1.7-1.3.3-2.5.7-3.7 1-1.3.3-2.5.7-3.7 1.1-4.9 1.5-9.8 3.3-14.5 5.5-.1 0-.2.1-.3.2.4-.2.8-.3 1.1-.5 5-2 10.1-3.7 15.2-5.1 5.2-1.4 10.5-2.4 15.7-3.3 10.6-1.6 21.3-2.5 32-2.6 10.7-.2 21.4.1 32 .9 10.6.8 21.2 1.8 31.8 3.2 10.6 1.4 21.1 3 31.6 4.7 21 3.5 41.8 7.8 62.5 12.4 10.4 2.3 20.7 4.8 31 7.3s20.6 5 30.9 7.6l30.8 7.8 30.8 7.6c20.6 5 41.2 9.8 61.8 14.4 20.6 4.6 41.4 8.9 62.1 12.8 41.5 7.8 83.3 14.3 125.3 17.3 21 1.5 42 2.1 63 1.4 10.5-.4 20.9-1 31.3-2.1 10.4-1 20.7-2.5 31-4.4 20.5-3.8 40.6-9.4 59.7-17.6 19.1-8.2 36.9-19 52.6-32.6 7.8-6.8 15.2-14.2 21.9-22.2 6.7-8 12.8-16.5 18.3-25.4.3-.5.6-1 .8-1.4 0 .4-.2.7-.5 1.1z"/>
      <path d="M2413.8 376.5c-.1-1.5-.2-3-.4-4.5v-.3h-4.4c-.7.8-1.4 1.6-2.2 2.3-1 1.1-2 2.1-3 3.2l-3 3.1c-2 2.1-4 4.1-6 6.1-1 1-2 1.9-3 2.9l-3 2.9c-8 7.5-16 14.3-24.1 20.2-1 .7-2.1 1.4-3.1 2.1l-3 2.1-3.1 2c-.5.3-1 .7-1.5 1l-1.6.9-3.1 1.9-1.5.9-1.5.9-3.1 1.7-3.1 1.6c-8.3 4.2-16.5 7.7-24.9 10.5-8.4 2.8-16.8 5.1-25.4 6.9-8.6 1.8-17.3 3.3-26.2 4.3-17.8 2.1-36.3 3-55.3 3.2-9.5.1-19.2 0-28.9-.2-9.8-.2-19.6-.6-29.6-1l-7.5-.3-7.5-.4c-2.5-.1-5.1-.3-7.6-.4-2.5-.1-5.1-.3-7.6-.5l-3.8-.3-3.8-.3c-2.6-.2-5.1-.4-7.7-.6-5.1-.4-10.3-.9-15.4-1.3-41.2-3.9-83.3-9.6-125.9-15.6-42.7-5.9-85.9-12.2-129.9-17.3-22-2.5-44.2-4.8-66.6-6.5-22.4-1.7-45-2.9-67.9-3.2-22.8-.3-45.9.4-69.2 2.6-11.6 1.1-23.3 2.7-35 4.8-11.7 2.1-23.3 4.8-34.8 8.3-11.5 3.5-22.9 7.8-33.9 13.2l-4.1 2.1-4 2.2-2 1.1-2 1.2-3.9 2.4-3.8 2.5c-.6.4-1.3.8-1.9 1.3l-1.9 1.4c-1.2.9-2.5 1.8-3.7 2.7l-3.6 2.9c-1.2.9-2.3 2-3.5 3l-1.7 1.5c-.6.5-1.1 1-1.7 1.6l-3.2 3.2c-1.1 1.1-2.1 2.2-3.1 3.3l-1.5 1.7c-.5.6-1 1.2-1.4 1.7-.9 1.2-1.9 2.3-2.8 3.5-1.8 2.4-3.6 4.8-5.1 7.3l-1.2 1.9-.6.9-.5 1c-.7 1.3-1.4 2.6-2.1 3.8-.4.6-.7 1.3-1 2l-.9 2-.9 2c-.3.6-.6 1.3-.8 2l-1.6 4c-.5 1.3-.9 2.6-1.3 3.9h5.2c5.1-5.2 10.4-9.8 16.2-13.7 2.1-1.5 4.3-2.9 6.5-4.3 1.1-.7 2.3-1.3 3.4-1.9l1.7-.9 1.7-.9c1.1-.6 2.3-1.2 3.4-1.7l3.5-1.5c1.1-.5 2.3-1 3.5-1.4 1.2-.4 2.3-.9 3.5-1.3l3.5-1.2c1.2-.4 2.4-.7 3.6-1.1l1.8-.5c.6-.2 1.2-.3 1.8-.5l3.6-.9c4.9-1 9.7-2.1 14.7-2.7 9.8-1.4 19.9-1.9 29.9-1.9 20.1 0 40.5 2.1 61 5.1 20.5 3.1 41 7.1 61.7 11.6 20.6 4.5 41.3 9.5 62.1 14.7 20.8 5.2 41.7 10.5 62.7 15.9 42 10.7 84.6 21.3 128.1 30.7 21.7 4.7 43.7 9 65.9 12.9 22.2 3.9 44.8 7.2 67.7 9.8l8.6.9c2.9.3 5.8.6 8.6.8 2.9.3 5.8.5 8.7.8l4.4.4 4.4.3c2.9.2 5.8.4 8.8.6 2.9.2 5.8.4 8.8.5 2.9.1 5.9.3 8.8.4 3 .1 5.9.2 8.9.2 23.8.4 48-.9 72.5-4.7 12.3-1.9 24.6-4.4 36.9-7.7 12.3-3.3 24.6-7.4 36.7-12.4 12.1-5 24-11.1 35.4-18.1 11.4-7.1 22.2-15.3 32.1-24.5.6-.6 1.2-1.1 1.8-1.7l1.8-1.8 3.6-3.6 3.4-3.7 1.7-1.9.8-.9.8-1c1.1-1.3 2.2-2.6 3.2-3.9l1.6-1.9 1.5-2c2-2.7 4-5.3 5.9-8.1l2.8-4.1c.9-1.4 1.7-2.8 2.6-4.2.8-1.4 1.7-2.8 2.5-4.3s1.6-2.9 2.3-4.3c1.6-2.9 2.9-5.9 4.2-8.8.7-1.5 1.3-3 1.9-4.4l1.8-4.5c4.5-12 7.5-24.2 8.9-36.4.3-3.1.7-6.1.8-9.1.1-1.5.1-3 .2-4.6l.1-2.3c0-.8.1-1.5 0-2.3-.3-3-.4-6-.6-9zm-7.6 12.6c-.1.3-.2.5-.2.8-2.5 9.9-5.6 19.7-9.3 29.3-3.8 10-8.2 19.7-13.4 29.1-5.1 9.4-11 18.4-17.6 26.9-6.6 8.5-13.9 16.5-21.8 23.9-7.9 7.3-16.5 14-25.5 20-9.1 5.9-18.6 11.1-28.4 15.6-19.7 9-40.5 15.1-61.7 19.1-10.6 2-21.2 3.4-31.9 4.4-10.7 1-21.4 1.6-32.1 1.8-21.4.4-42.7-.5-64-2.2-42.5-3.6-84.5-10.4-126.1-18.7-41.6-8.3-82.9-18.1-124.1-27.9l-30.9-7.3-30.9-7.2c-20.6-4.7-41.2-9.5-61.9-14-41.3-9-82.6-17.9-124.5-22.3-10.5-1-20.9-1.8-31.4-2-2.6-.1-5.2 0-7.9-.1-2.6.1-5.2.1-7.9.2-5.2.1-10.5.6-15.7 1.1-5.2.6-10.4 1.4-15.5 2.4-5.1 1.1-10.2 2.4-15.1 4.1-9.9 3.4-19.3 8.4-27.4 15.2l-.2-.2-.1-.1.2-.2c5.7-8.2 12.3-15.8 19.9-22.3 1.9-1.7 3.9-3.2 5.9-4.8l3.1-2.3 1.5-1.1 1.6-1.1 3.2-2.1 3.3-2c1.1-.7 2.2-1.3 3.3-1.9l3.3-1.9c18-9.5 37.6-15.6 57.5-19.6 19.9-4 40.2-6 60.4-6.9 20.3-.9 40.6-.6 60.8.3 40.5 1.9 80.8 6.3 121 11.3 20.1 2.6 40.1 5.2 60.2 8l60.1 8.3c40.1 5.5 80.1 10.9 120.3 15.3 20.1 2.2 40.2 4.1 60.3 5.4 20.1 1.3 40.3 2.3 60.4 2.5 20.1.1 40.3-.6 60.3-2.5s39.9-5.2 59.3-10.6c9.7-2.7 19.2-5.9 28.4-9.8 9.2-3.9 18.2-8.5 26.7-13.9 8.4-5.4 16.4-11.5 23.7-18.4 7.3-6.9 13.8-14.6 19.6-22.8l1.4.9h.1c-.2.1-.2.2-.3.3z"/>
    </g>
    <g>
      <path d="M1711.7 123.8c-1-5.8-2.3-11.5-4.1-17.1-3.7-11.1-9.3-21.6-16.8-30.7-7.5-9-16.9-16.6-27.3-22.4-8.9-5-18.4-8.8-28.2-11.7 3.6 1.5 7.2 3.2 10.6 5.1 5.1 2.9 9.9 6.2 14.3 10 4.5 3.8 8.6 8 12.3 12.5 3.7 4.5 7 9.4 10 14.4 5.9 10.1 10.1 21.1 12.8 32.5 5.3 22.7 4.7 46.5-.4 69-2.6 11.3-6.3 22.3-11.3 32.7-4.9 10.4-11.1 20.3-18.2 29.3-14 18-30.1 34.3-47.1 49.3-17 15.1-34.8 29.3-53 42.8l-13.6 10.1-13.5 10.1c-4.5 3.4-8.9 6.9-13.2 10.5-4.3 3.6-8.6 7.2-12.7 11s-8.1 7.7-11.9 11.8l-2.7 3c2.4-2.4 4.8-4.7 7.2-6.9 4.5-4.1 9.2-8 14-11.8 4.8-3.7 9.7-7.4 14.7-10.9s10-6.9 15.1-10.3c10.1-6.8 20.4-13.2 30.7-19.6 10.3-6.4 20.6-12.7 30.7-19.4 5.1-3.3 10-6.7 15-10.2 4.9-3.5 9.7-7.2 14.5-10.9 9.4-7.6 18.4-15.6 26.6-24.5 4.1-4.4 8-9 11.6-13.7 3.7-4.7 7.1-9.7 10.2-14.7 12.6-20.3 20.7-42.8 23.9-66.1.8-5.8 1.4-11.8 1.7-17.7.4-5.9.4-11.8.2-17.7-.6-6.1-1.1-12-2.1-17.8z"/>
      <path d="M1520.8 365.4c4.3-3.7 8.7-7.3 13.2-10.9 4.5-3.6 9-7 13.6-10.3 4.5-3.4 9.2-6.7 13.8-9.9 18.5-13.1 37.3-25.6 54.4-40.3 8.6-7.3 16.8-15.1 24.4-23.3 7.7-8.2 14.8-17 21.3-26.1 6.6-9 12-18.8 16.4-29 4.4-10.2 7.8-20.8 10.1-31.7 2.2-10.8 3.4-21.9 3.3-33-.1-5.5-.4-11-1-16.5s-1.6-10.9-2.8-16.3c-2.4-10.7-6.2-21.1-11.4-30.8-2.6-4.8-5.5-9.5-8.9-13.8-3.3-4.4-7-8.5-11-12.2-4-3.7-8.4-7.1-13-10.1s-9.5-5.6-14.6-7.8c-2.6-1.1-5.2-2.1-7.8-3 2.1.9 4.3 1.9 6.3 3.1 9.5 5.3 17.9 12.7 24.7 21.2 3.4 4.3 6.4 8.9 9.1 13.6 2.7 4.8 5 9.7 7 14.8 4.1 10.1 6.7 20.8 8.3 31.6 3.1 21.6 1.8 43.7-3.7 64.8-2.7 10.5-6.5 20.8-11.5 30.5-2.5 4.8-5.2 9.6-8.2 14.1-3.1 4.5-6.3 8.8-9.7 13-6.7 8.4-13.9 16.5-21.3 24.2-7.4 7.8-15.2 15.2-23.1 22.5-7.9 7.3-15.9 14.4-23.9 21.5l-24.2 21.1c-16.1 14-32.3 27.9-46.4 43.8-3.5 4-6.9 8-10.1 12.2-.1.2-.3.4-.4.6l2.7-3.3c3.7-4.4 7.6-8.6 11.7-12.6 4.2-4 8.4-7.9 12.7-11.7zm-32.1-267.5c.7-3.9 1.8-7.8 3-11.6a87.8 87.8 0 0 0-5.1 14.4c-1.4 5.2-2.2 10.6-2.5 16.1l-.1 4.1c0 1.4.1 2.7.1 4.1.1 2.7.4 5.4.8 8.1.9 5.3 2.6 10.5 5 15.3 2.4 4.8 5.4 9.3 9.1 13.1 1.9 1.9 3.9 3.6 6 5.1.5.4 1.1.7 1.7 1.1.6.4 1.1.7 1.7 1 1.1.6 2.3 1.2 3.5 1.7 2.4 1 5 1.8 7.5 2.2 2.6.4 5.2.6 7.8.4 2.6-.2 5.2-.7 7.6-1.6 2.5-.9 4.8-2 7-3.5s4.1-3.2 5.9-5.1c1.8-2 3.2-4.2 4.5-6.5 2.4-4.6 3.3-10 2.9-15.3-.5-4.8-2.1-9.6-4.7-13.9-1.3-.9-2.8-1.7-4.3-2.4 2 2.8 3.7 5.9 4.8 9.2 1.6 4.8 2 10.1.5 15.1-.7 2.5-1.9 4.9-3.4 6.9-1.5 2.1-3.4 3.9-5.4 5.5-4.1 3.1-9.3 5-14.5 5.2-5.2.3-10.4-.7-15.1-2.8-4.7-2-9.1-4.9-12.7-8.7-3.6-3.7-6.3-8.1-8.3-12.8-4-9.4-5.2-19.6-4.9-29.6.1-4.9.7-9.9 1.6-14.8z"/>
      <path d="M1554.4 130c1.7 3.3 2.9 6.9 3.5 10.6.7 5.7 0 11.8-2.5 17.1-1.3 2.7-2.8 5.1-4.7 7.4-1.9 2.2-4.1 4.2-6.5 6-4.9 3.3-10.6 5.5-16.5 5.9-2.9.3-5.9.1-8.8-.4-2.9-.5-5.7-1.3-8.4-2.4-5.4-2.3-10.3-5.7-14.3-9.9-2-2.1-3.9-4.3-5.4-6.7-1.6-2.4-3.1-4.9-4.2-7.5-1.2-2.6-2.3-5.3-3.1-8-.4-1.4-.8-2.7-1.1-4.1-.4-1.4-.6-2.8-.9-4.2-.5-2.8-.8-5.7-.9-8.5l-.1-4.2v-4.3c.1-2.1.2-4.3.4-6.4-.8 4.3-1.3 8.7-1.4 13.1-.1 1.5 0 3.1-.1 4.6 0 1.5.1 3.1.1 4.6.1 1.5.2 3.1.4 4.6l.2 2.3.3 2.2c1 5.9 2.9 11.7 5.7 17.1 2.8 5.4 6.4 10.4 10.8 14.5 2.2 2.1 4.6 4 7.1 5.6 2.5 1.6 5.2 3 8 4 5.6 2.1 11.7 2.9 17.6 2.3 5.9-.6 11.5-2.8 16.3-6.2 2.4-1.7 4.6-3.7 6.5-5.9 1.9-2.2 3.5-4.7 4.8-7.4 1.3-2.7 2.3-5.5 2.9-8.4.7-2.9 1-5.9 1-9 0-2.7-.2-5.5-.8-8.2-.8-4-2.8-7.5-5.9-10.2z"/>
      <path d="M1718 83.4c-13.3-20.2-33.1-35.1-55.6-43.9-29.6-11.5-65.1-13.8-96.4-9.6-32.9 4.5-64.7 17.3-85 44.9-22.5 30.5-24.8 82.2 5.9 108.5 8.1 7 18.9 12.9 29.6 14.3 2.3.4 4.6.6 7 .6 23.1 0 41.8-18.7 41.8-41.8 0-1.7-.1-3.4-.3-5.1-.1 5.6-1.2 11.2-3.5 16.4-2.7 6.2-7.2 11.6-12.7 15.5-5.5 3.9-12.1 6.3-18.8 6.9-3.4.3-6.8.2-10-.4-3.3-.5-6.5-1.4-9.6-2.5-6.2-2.3-11.9-6-16.8-10.4-4.8-4.5-8.9-9.8-12.1-15.5-3.2-5.8-5.5-12-6.8-18.5l-.4-2.5-.3-2.5c-.2-1.6-.4-3.2-.5-4.8-.2-3.2-.4-6.5-.4-9.8.1-6.5.7-13.1 2.1-19.5 1.3-6.4 3.5-12.7 6.4-18.7 5.8-11.9 14.8-22.1 25.4-29.6 5.3-3.8 11.1-6.9 17-9.3 6-2.5 12.1-4.3 18.4-5.4l.2.7c-9.6 3.7-18.7 8.3-26.8 14.2l-4.6 4.6c-6.8 7-11.9 15.4-15.8 24.3-3.8 9-6.2 18.6-6.6 28.4-.2 4.9.2 9.8 1.1 14.6.9 4.8 2.4 9.5 4.5 13.8 2.1 4.3 4.8 8.4 8.2 11.7 3.3 3.4 7.3 6.1 11.7 8 2.2.9 4.5 1.6 6.8 2.1s4.7.7 7 .6c4.7-.1 9.3-1.6 13.2-4.3 3.8-2.8 7-6.6 8.4-11.1 1.5-4.5 1.3-9.5 0-14.1-1.1-3.8-3-7.4-5.4-10.6-1.6-.7-3.4-1.4-5.3-2-31.8-10-31.9-32.8-29.4-44.8.4-2.4 1.1-4.9 2.1-7.2.1-.4.2-.6.2-.6 1.9-4.3 4.9-8.4 8.8-11.8 19.7-17.2 53.6-16.1 77-8.9 36.3 11.2 55.7 43.6 59 80.1 2.2 23.7-.4 48.3-8.4 70.8-7.8 21.8-21.7 41.4-36.9 58.6-29.8 33.6-68 58.4-98.3 91.5-6.7 7.3-13 15-18.7 23-32.7 45.7-37.8 80.3-38 96.3h4.2c5.4-12.7 18-36 44.7-60.7 39.8-36.8 108-62.2 169.6-119.5 61.6-57.3 62.4-123.3 62.4-123.3 0-.4.1-.8.1-1.1 1.3-28.1-4-57.2-19.4-80.6zm3 94.7c-.2 1.5-.5 3.1-.7 4.6-.3 1.5-.5 3.1-.8 4.6l-1 4.6-1.2 4.5-.6 2.3-.7 2.2c-.5 1.5-.9 3-1.4 4.5-1 3-2.1 5.9-3.3 8.8-.6 1.4-1.2 2.9-1.8 4.3-.7 1.4-1.3 2.8-2 4.2-1.4 2.8-2.8 5.5-4.4 8.2-3 5.4-6.4 10.6-10.1 15.6-7.2 10-15.5 19.1-24.2 27.7-4.4 4.2-8.8 8.5-13.4 12.4-4.6 4-9.2 8-14 11.7-4.8 3.8-9.6 7.5-14.4 11.2-4.9 3.7-9.8 7.3-14.7 10.8-9.9 7-20 13.8-30.2 20.4-20.3 13.3-41.1 25.7-60.6 39.9-9.7 7.1-19.1 14.7-27.6 23.2-4.2 4.3-8.3 8.7-11.9 13.5-2.5 3.3-4.9 6.8-7 10.4-1.1 2.1-2.2 4.2-3.2 6.4l-.3-.1-.3-.1h-.1c.1-.3.2-.7.4-1 1.2-4.8 2.8-9.6 4.7-14.3 2-5 4.3-9.9 6.9-14.6 2.6-4.7 5.5-9.3 8.6-13.7 3.1-4.4 6.4-8.7 9.9-12.8 6.9-8.3 14.5-16 22.3-23.4 7.8-7.4 15.9-14.5 24.1-21.3l24.8-20.4c8.3-6.8 16.4-13.7 24.3-20.9 4-3.6 7.8-7.2 11.6-11 3.8-3.7 7.5-7.5 11.2-11.4 7.3-7.8 14.2-15.9 20.6-24.4 3.2-4.2 6.3-8.6 9.2-13 2.8-4.4 5.4-9 7.7-13.8 4.6-9.5 8.1-19.4 10.6-29.7 2.5-10.2 4-20.7 4.4-31.2.5-10.5 0-21.1-1.4-31.5-1.4-10.4-3.9-20.7-7.5-30.5-1.8-4.9-3.9-9.7-6.4-14.4-2.4-4.6-5.2-9.1-8.3-13.3-6.2-8.4-13.8-15.9-22.7-21.5-4.5-2.8-9.2-5.2-14.2-7-4-1.5-8.1-2.6-12.3-3.4-.9-.1-1.7-.2-2.6-.4-.8-.1-1.6-.1-2.4-.2v-.6c1.7 0 3.3.1 5 .1.8 0 1.6.1 2.4.1 9.7.5 19.3 1.5 28.9 3.5 12 2.5 23.7 6.3 34.7 11.9 11 5.6 21.2 13.1 29.6 22.4 8.4 9.3 14.9 20.2 19.4 32 4.4 11.7 6.9 24.1 7.8 36.6.8 12.6.2 24.9-1.4 37.3z"/>
    </g>
  </g>
</svg>
